<?xml version="1.0" encoding="utf-8"?>
<!-- Generator: Adobe Illustrator 19.0.0, SVG Export Plug-In . SVG Version: 6.00 Build 0)  -->
<svg version="1.0" id="Layer_1" xmlns="http://www.w3.org/2000/svg" xmlns:xlink="http://www.w3.org/1999/xlink" x="0px" y="0px"
	 viewBox="0 0 800 600" style="enable-background:new 0 0 800 600;" xml:space="preserve">
<style type="text/css">
	.st0{fill:#00EDFF;}
</style>
<g id="XMLID_24_">
	<g id="XMLID_56_">
		<path id="XMLID_57_" d="M61.5,64.5h43.8v8.7H87.9v55.2h-9.1V73.2H61.5V64.5z"/>
		<path id="XMLID_59_" d="M160,98.3h-35.6v30.1h-9.1V64.5h9.1v25.1H160V64.5h9.1v63.9H160V98.3z"/>
		<path id="XMLID_61_" d="M216.2,89.6v8.7h-21v21.4h28.3v8.7H186V64.5h36.5v8.7h-27.4v16.4H216.2z"/>
		<path id="XMLID_63_" d="M293,63.6c9.1,0,17.8,3.7,23.4,9.9l-6.1,6c-3.7-4.1-10.4-7.2-17.2-7.2c-13.1,0-23.2,10.4-23.2,24.2
			c0,14.4,10.4,24.2,24,24.2c8.6,0,14.8-4.7,18.3-9l6.5,5.8c-5.5,7-15,11.9-24.8,11.9c-19.1,0-33.1-14-33.1-32.9
			C260.7,78,274.6,63.6,293,63.6z"/>
		<path id="XMLID_65_" d="M359.2,89.6v8.7h-21v21.4h28.3v8.7h-37.4V64.5h36.5v8.7h-27.4v16.4H359.2z"/>
		<path id="XMLID_67_" d="M388,81.5v46.9h-9.1V64.5h6.4l38.3,46.9V64.5h9.1v63.9h-6.4L388,81.5z"/>
		<path id="XMLID_69_" d="M442.7,64.5h43.8v8.7h-17.3v55.2h-9.1V73.2h-17.3V64.5z"/>
		<path id="XMLID_71_" d="M526.7,89.6v8.7h-21v21.4H534v8.7h-37.4V64.5h36.5v8.7h-27.4v16.4H526.7z"/>
		<path id="XMLID_73_" d="M555.4,98.3v30.1h-9.1V64.5h22.4c5.8,0,9.5,1.4,12.4,3.7c3.8,3.1,6.3,7.8,6.3,13.1s-2.5,10-6.3,13.1
			c-2,1.6-4.3,2.8-7.5,3.4l22.9,30.5h-11l-22.7-30.1H555.4z M568.2,89.6c4.1,0,6.2-0.9,7.7-2.4c1.5-1.5,2.4-3.6,2.4-5.8
			s-0.9-4.4-2.4-5.8c-1.5-1.5-3.6-2.4-7.7-2.4h-12.8v16.4H568.2z"/>
		<path id="XMLID_76_" d="M98.4,175.6v8.7h-21v30.1h-9.1v-63.9h36.5v8.7H77.4v16.4H98.4z"/>
		<path id="XMLID_78_" d="M141.3,149.6c18.1,0,31.9,14.2,31.9,32.9c0,18.6-13.9,32.9-31.9,32.9c-18.1,0-31.9-14.2-31.9-32.9
			C109.4,163.8,123.3,149.6,141.3,149.6z M141.3,206.6c13.1,0,22.8-10.3,22.8-24.2c0-13.8-9.8-24.2-22.8-24.2
			c-13.1,0-22.8,10.4-22.8,24.2C118.5,196.3,128.3,206.6,141.3,206.6z"/>
		<path id="XMLID_81_" d="M194.3,184.3v30.1h-9.1v-63.9h22.4c5.8,0,9.5,1.4,12.4,3.7c3.8,3.1,6.3,7.8,6.3,13.1
			c0,5.3-2.5,10-6.3,13.1c-2,1.6-4.3,2.8-7.5,3.4l22.9,30.5h-11l-22.7-30.1H194.3z M207,175.6c4.1,0,6.2-0.9,7.7-2.4
			c1.5-1.5,2.4-3.6,2.4-5.8c0-2.3-0.9-4.4-2.4-5.8c-1.5-1.5-3.6-2.4-7.7-2.4h-12.8v16.4H207z"/>
		<path id="XMLID_84_" d="M273.1,214.4v-63.9h19.2c10.1,0,16.7,2.2,21.9,6c7.8,5.8,12.8,15.3,12.8,25.9c0,10.6-4.8,20.1-12.7,25.9
			c-5.2,3.8-11.9,6-22,6H273.1z M310,164.6c-4-3.5-9.3-5.4-18.3-5.4h-9.6v46.5h9.6c8.9,0,14.2-1.9,18.3-5.4
			c4.8-4.3,7.8-10.8,7.8-17.9C317.8,175.3,314.9,168.9,310,164.6z"/>
		<path id="XMLID_87_" d="M338.8,150.5h9.1v63.9h-9.1V150.5z"/>
		<path id="XMLID_89_" d="M417.7,203.4c-5.5,6.9-15,11.9-24.8,11.9c-19.1,0-33.1-14-33.1-32.9c0-18.4,13.9-32.9,32.3-32.9
			c9.1,0,17.8,3.7,23.4,9.9l-6.1,6c-3.7-4.1-10.4-7.2-17.2-7.2c-13.1,0-23.2,10.4-23.2,24.2c0,14.4,10.4,24.2,24,24.2
			c6.8,0,12.3-2.6,15.7-5.9v-16.4h-18.3v-8.7h27.4V203.4z"/>
		<path id="XMLID_91_" d="M432.3,150.5h9.1v63.9h-9.1V150.5z"/>
		<path id="XMLID_93_" d="M451.5,150.5h43.8v8.7H478v55.2h-9.1v-55.2h-17.3V150.5z"/>
		<path id="XMLID_95_" d="M535.2,198h-26.9l-6.7,16.4h-9.5l26.5-63.9h6.4l26.5,63.9h-9.5L535.2,198z M511.9,189.3h19.7l-9.9-23.7
			L511.9,189.3z"/>
		<path id="XMLID_98_" d="M569.7,205.7H598v8.7h-37.4v-63.9h9.1V205.7z"/>
		<path id="XMLID_100_" d="M113,270.2H77.4v30.1h-9.1v-63.9h9.1v25.1H113v-25.1h9.1v63.9H113V270.2z"/>
		<path id="XMLID_102_" d="M141.9,292.9c-4.1-4.5-6.7-10.4-6.7-19v-37.4h9.1v37.9c0,6,1.5,9.8,4,12.6c3.2,3.6,7.9,5.7,13.3,5.7
			c5.4,0,10.1-2.1,13.3-5.7c2.6-2.8,4-6.6,4-12.6v-37.9h9.1v37.4c0,8.6-2.6,14.5-6.7,19c-4.8,5.2-12,8.4-19.8,8.4
			S146.7,298.1,141.9,292.9z"/>
		<path id="XMLID_104_" d="M233.4,286.7H227l-18.7-29.3v43h-9.1v-63.9h6.4l24.6,39l24.6-39h6.4v63.9h-9.1v-43L233.4,286.7z"/>
		<path id="XMLID_106_" d="M312.5,283.9h-26.9l-6.7,16.4h-9.5l26.5-63.9h6.4l26.5,63.9h-9.5L312.5,283.9z M289.3,275.3H309
			l-9.9-23.7L289.3,275.3z"/>
		<path id="XMLID_109_" d="M346.1,253.5v46.9H337v-63.9h6.4l38.3,46.9v-46.9h9.1v63.9h-6.4L346.1,253.5z"/>
		<path id="XMLID_112_" d="M406.8,236.5h9.1v63.9h-9.1V236.5z"/>
		<path id="XMLID_117_" d="M429.5,236.5h43.8v8.7H456v55.2h-9.1v-55.2h-17.3V236.5z"/>
		<path id="XMLID_119_" d="M484.9,236.5h9.1v63.9h-9.1V236.5z"/>
		<path id="XMLID_121_" d="M540.6,261.6v8.7h-21v21.4h28.3v8.7h-37.4v-63.9H547v8.7h-27.4v16.4H540.6z"/>
		<path id="XMLID_123_" d="M560.6,284.4c3.7,4.6,9,8.2,15.6,8.2c5.9,0,11.1-3.8,11.1-9.6c0-9.8-13.5-10.9-22-16.4
			c-4.6-3-8.1-7.4-8.1-14.1c0-9.3,8.2-17,19.3-17c8.1,0,13.8,3.6,17.2,6.4l-5.4,6.7c-3.5-2.9-7.4-4.4-11.4-4.4
			c-5.3,0-10.6,3-10.6,8.6c0,8.1,13.6,9.9,21.8,15.3c4.3,2.8,8.3,7.3,8.3,14.6c0,11.2-8.7,18.5-19.8,18.5c-8.8,0-16.7-3.8-22.4-10.7
			L560.6,284.4z"/>
		<path id="XMLID_125_" d="M131.3,358v28.3h-9.1v-63.9h24.2c6.2,0,10.2,1.6,13.3,4.2c3.8,3.3,6.3,8.1,6.3,13.6s-2.5,10.3-6.3,13.6
			c-3.1,2.6-7.1,4.2-13.3,4.2H131.3z M145.9,349.4c4.4,0,6.8-1.1,8.4-2.8c1.6-1.6,2.6-3.8,2.6-6.3s-1-4.7-2.6-6.3
			c-1.6-1.7-4-2.8-8.4-2.8h-14.6v18.3H145.9z"/>
		<path id="XMLID_128_" d="M183.8,356.2v30.1h-9.1v-63.9H197c5.8,0,9.5,1.4,12.4,3.7c3.8,3.1,6.3,7.8,6.3,13.1
			c0,5.3-2.5,10-6.3,13.1c-2,1.6-4.3,2.8-7.5,3.4l22.9,30.5h-11l-22.7-30.1H183.8z M196.5,347.5c4.1,0,6.2-0.9,7.7-2.4
			c1.5-1.5,2.4-3.6,2.4-5.8c0-2.3-0.9-4.4-2.4-5.8c-1.5-1.5-3.6-2.4-7.7-2.4h-12.8v16.4H196.5z"/>
		<path id="XMLID_131_" d="M232.1,322.4h9.1v63.9h-9.1V322.4z"/>
		<path id="XMLID_133_" d="M261.9,339.4v46.9h-9.1v-63.9h6.4l38.3,46.9v-46.9h9.1v63.9h-6.4L261.9,339.4z"/>
		<path id="XMLID_152_" d="M347,321.5c9.1,0,17.8,3.7,23.4,9.9l-6.1,6c-3.7-4.1-10.4-7.2-17.2-7.2c-13.1,0-23.2,10.4-23.2,24.2
			c0,14.4,10.4,24.2,24,24.2c8.6,0,14.8-4.7,18.3-9l6.5,5.8c-5.5,7-15,11.9-24.8,11.9c-19.1,0-33.1-14-33.1-32.9
			C314.7,336,328.6,321.5,347,321.5z"/>
		<path id="XMLID_154_" d="M410.6,347.5v8.7h-21v21.4h28.3v8.7h-37.4v-63.9h36.5v8.7h-27.4v16.4H410.6z"/>
		<path id="XMLID_156_" d="M424.4,322.4h43.8v8.7h-17.3v55.2h-9.1v-55.2h-17.3V322.4z"/>
		<path id="XMLID_158_" d="M501.5,321.5c18.1,0,31.9,14.2,31.9,32.9c0,18.6-13.9,32.9-31.9,32.9c-18.1,0-31.9-14.2-31.9-32.9
			C469.6,335.8,483.5,321.5,501.5,321.5z M501.5,378.6c13.1,0,22.8-10.3,22.8-24.2c0-13.8-9.8-24.2-22.8-24.2
			c-13,0-22.8,10.4-22.8,24.2C478.7,368.3,488.5,378.6,501.5,378.6z"/>
		<path id="XMLID_161_" d="M550.4,339.4v46.9h-9.1v-63.9h6.4l38.3,46.9v-46.9h9.1v63.9h-6.4L550.4,339.4z"/>
	</g>
	<g id="XMLID_52_">
		<path id="XMLID_53_" d="M96,361.5c-1.3,1.2-3.7,2.9-7.4,2.9c-5,0-11.8-3.9-11.8-11.6c0-7.4,6.3-11.6,11.3-11.6
			c1.9,0,4,0.4,5.9,1.7v-1.1h5.7v13c0,1.7,0.2,2.4,0.5,3c0.4,0.7,1.1,1.2,2.3,1.2c3.2,0,3.9-4.5,3.9-7.6c0-9.7-8.1-16.5-17.1-16.5
			c-9.7,0-17.5,7.9-17.5,17.8c0,9.8,7.7,17.8,17.3,17.8c4,0,7.8-1.2,10.7-3.5l3.3,4.9c-3.7,2.8-8.4,4.5-13.7,4.5
			c-13.2,0-23.6-10.6-23.6-23.8c0-13.1,10.2-23.8,23.4-23.8c12.2,0,23.1,9.5,23.1,22.4c0,7-3.1,13-10,13
			C99.9,364.3,97.5,363.2,96,361.5z M88.9,358.9c2.1,0,4-0.9,4.9-2.1c-0.1-0.7-0.1-1.5-0.1-2.4v-6c-1-1.1-2.8-1.9-4.8-1.9
			c-3.7,0-6.2,2.8-6.2,6.2C82.7,356.1,85.3,358.9,88.9,358.9z"/>
	</g>
</g>
<polygon id="XMLID_23_" class="st0" points="660,0 660,0 660,460 0,460 0,460 0,460 140,600 800,600 800,140 "/>
<g id="XMLID_1_">
</g>
<g id="XMLID_2_">
</g>
<g id="XMLID_3_">
</g>
<g id="XMLID_4_">
</g>
<g id="XMLID_5_">
</g>
<g id="XMLID_6_">
</g>
<g id="XMLID_7_">
</g>
<g id="XMLID_8_">
</g>
<g id="XMLID_9_">
</g>
<g id="XMLID_10_">
</g>
<g id="XMLID_11_">
</g>
<g id="XMLID_12_">
</g>
<g id="XMLID_13_">
</g>
<g id="XMLID_14_">
</g>
<g id="XMLID_15_">
</g>
</svg>
