<?xml version="1.0" encoding="utf-8"?>
<!-- Generator: Adobe Illustrator 23.1.1, SVG Export Plug-In . SVG Version: 6.00 Build 0)  -->
<svg version="1.1" id="Layer_1" xmlns="http://www.w3.org/2000/svg" xmlns:xlink="http://www.w3.org/1999/xlink" x="0px" y="0px"
	 viewBox="0 0 440.1 97" style="enable-background:new 0 0 440.1 97;" xml:space="preserve">
<style type="text/css">
	.st0{fill:#EF7622;}
	.st1{clip-path:url(#SVGID_2_);}
	.st2{clip-path:url(#SVGID_4_);}
	.st3{fill:#FFFFFF;}
	.st4{fill:#070707;}
</style>
<title>Artboard 1</title>
<path class="st0" d="M12.2,0h71.5C90.5,0,96,5.5,96,12.2v72.5C96,91.5,90.5,97,83.8,97H12.2C5.5,97,0,91.5,0,84.8V12.2
	C0,5.5,5.5,0,12.2,0z"/>
<g>
	<defs>
		<rect id="SVGID_1_" x="3" y="0.9" width="90" height="90"/>
	</defs>
	<clipPath id="SVGID_2_">
		<use xlink:href="#SVGID_1_"  style="overflow:visible;"/>
	</clipPath>
	<g class="st1">
		<g>
			<defs>
				<rect id="SVGID_3_" x="3" y="0.9" width="90" height="90"/>
			</defs>
			<clipPath id="SVGID_4_">
				<use xlink:href="#SVGID_3_"  style="overflow:visible;"/>
			</clipPath>
			<g class="st2">
				<path class="st3" d="M10.8,83.5V20.1c2.4-0.6,4.6-1.7,6.6-3v59.8h0.4c1.2,0,2.4-0.1,3.5-0.4c2.6-0.6,5.2-1.4,7.6-2.5
					c1.2-0.5,2.5-1.1,3.7-1.7c1.8-0.9,3.7-1.5,5.7-1.7c2.1-0.3,4.2,0,6.2,0.8c0.9,0.4,1.6,0.9,2.3,1.5c0.5,0.6,0.9,1.2,1.1,2
					c0,0.1,0,0.1,0.1,0.2s0-0.1,0-0.1c0.2-0.8,0.6-1.5,1.2-2.1c0.9-0.9,2-1.5,3.2-1.9c1.4-0.5,2.9-0.6,4.4-0.6
					c2.2,0.1,4.4,0.7,6.4,1.7c2,1,4,1.9,6,2.7c2,0.8,4.1,1.4,6.2,1.7c0.9,0.2,1.8,0.2,2.7,0.2h0.3V17.3c0,0,0,0,0-0.1v-0.1
					c2,1.3,4.3,2.3,6.6,2.8v63.5H10.8z"/>
				<path class="st3" d="M24.8,32.7C24.3,27.5,24.4,22.2,25,17l0.4,0.2c1.5,0.8,3.2,1.4,4.9,1.7c3,0.6,6.2,0.1,8.9-1.4
					c1.9-1,3.6-2.4,5-3.9c1.4-1.5,2.6-3.1,3.5-4.8l0.1-0.2L48,8.8c1.5,2.6,3.4,4.8,5.7,6.7c1.8,1.5,4,2.6,6.3,3.2
					c2.4,0.5,5,0.4,7.3-0.4c1-0.3,2-0.7,2.9-1.2l0.2-0.1h0.1c0.6,5.2,0.7,10.4,0.2,15.6h-46 M35.7,60.4c-2-2.7-3.8-5.6-5.3-8.7
					l17.4-17.4l17.4,17.4c-1.4,3.1-3.2,6-5.2,8.7l-6-6l-6.1-6.1L35.7,60.4"/>
			</g>
		</g>
	</g>
</g>
<path class="st4" d="M118.7,28.3h-3V3.9h8.6c2.7,0,4.7,0.7,6,2.2c1.2,1.4,1.9,3.2,1.9,5c0.1,1.9-0.7,3.8-2.1,5.2
	c-1.5,1.4-3.5,2.1-5.5,2h-5.9L118.7,28.3z M118.7,15.9h5.6c1.3,0.1,2.5-0.4,3.5-1.3c0.9-0.9,1.4-2.1,1.3-3.4c0-1.2-0.4-2.3-1.2-3.2
	c-0.8-1-2.1-1.5-3.4-1.4h-5.8L118.7,15.9z M139.8,28.3H137v-18h2.5v4.2c0.5-1.5,1.4-2.8,2.6-3.9c0.8-0.6,1.7-0.9,2.7-0.9
	c0.4,0,0.7,0,1.1,0.1v2.7h-0.6c-1.5,0-2.9,0.6-3.9,1.7c-1.1,1.3-1.6,2.9-1.6,4.5L139.8,28.3z M153.2,3.9V7h-3V3.9L153.2,3.9z
	 M153.1,10.3v18h-2.8v-18H153.1z M174.1,28.3h-2.6V16.7c0.1-1.3-0.3-2.5-1.1-3.5c-0.7-0.7-1.7-1-2.6-1c-1.4,0-2.7,0.6-3.6,1.7
	c-1,1.3-1.5,2.9-1.4,4.5v9.9h-2.8v-18h2.6v3.3c1.5-2.5,3.4-3.8,5.7-3.8c1.2,0,2.4,0.3,3.4,1c0.9,0.6,1.5,1.4,1.9,2.3
	c0.4,1.5,0.6,3.1,0.5,4.7L174.1,28.3z M191.6,21.9l2.5,0.5c-0.2,1.8-1.1,3.4-2.4,4.7c-3,2.5-7.5,2.2-10.1-0.9
	c-0.1-0.1-0.1-0.1-0.2-0.2c-1.4-2-2.1-4.3-2-6.7c-0.1-2.4,0.6-4.8,2.1-6.8c1.3-1.8,3.4-2.8,5.6-2.7c1.7-0.1,3.4,0.6,4.7,1.8
	c1.2,1.2,2,2.8,2.2,4.5l-2.5,0.5c-0.5-3-1.9-4.5-4.3-4.5c-1.5,0-2.8,0.7-3.6,2c-0.9,1.6-1.3,3.3-1.2,5.1c-0.1,1.9,0.3,3.7,1.2,5.4
	c0.7,1.2,2.1,2,3.5,1.9C189.5,26.4,191,24.9,191.6,21.9z M211.1,22.9l2.6,0.5c-0.5,1.5-1.5,2.9-2.8,3.8c-1.4,1-3.2,1.6-4.9,1.5
	c-2.3,0.1-4.5-0.9-6-2.6c-1.6-1.9-2.4-4.3-2.3-6.8c-0.1-2.5,0.7-5,2.4-6.9c1.5-1.7,3.7-2.7,6-2.7c2.2-0.1,4.3,0.8,5.7,2.4
	c1.4,1.6,2.2,4.1,2.2,7.3h-13.1c0,2.7,0.6,4.6,1.7,5.5c1,0.9,2.3,1.4,3.6,1.4C208.5,26.4,210.2,25.3,211.1,22.9L211.1,22.9z
	 M210.9,17.4c0-0.9-0.2-1.8-0.5-2.7c-0.3-0.8-0.9-1.5-1.6-2c-0.8-0.6-1.7-0.9-2.7-0.8c-1.3,0-2.6,0.5-3.5,1.5c-1,1.1-1.6,2.5-1.6,4
	L210.9,17.4z M227.4,26.3v2.2c-0.9,0.1-1.7,0.2-2.6,0.2c-3.5,0-5.2-1.8-5.2-5.5V12.4h-3.2v-2.2h3.2l0.1-4.5l2.6-0.2v4.8h4v2.2h-4
	v11.3c0,1.9,1,2.8,2.9,2.8C226,26.5,226.7,26.5,227.4,26.3z M237.6,28.8c-2.3,0.1-4.4-0.9-5.8-2.8c-1.4-2-2.2-4.4-2.1-6.8
	c-0.1-2.5,0.7-5,2.3-6.9c1.5-1.7,3.6-2.6,5.8-2.6c2.3-0.1,4.5,0.9,5.9,2.7c1.5,1.9,2.2,4.3,2.1,6.7c0.1,2.5-0.7,5-2.3,6.9
	C242.1,27.8,239.9,28.8,237.6,28.8L237.6,28.8z M237.8,26.4c1.4,0,2.7-0.6,3.6-1.8c1-1.2,1.4-3,1.4-5.5s-0.5-4.3-1.5-5.4
	c-0.9-1.1-2.2-1.7-3.6-1.7c-1.4,0-2.7,0.6-3.5,1.7c-1,1.1-1.4,2.9-1.4,5.4c0,2.6,0.5,4.5,1.4,5.6C235.1,25.8,236.5,26.5,237.8,26.4
	L237.8,26.4z M265.6,28.3H263V16.7c0.1-1.3-0.3-2.5-1.1-3.5c-0.7-0.7-1.7-1-2.6-1c-1.4,0-2.7,0.6-3.6,1.7c-1,1.3-1.5,2.9-1.4,4.5
	v9.9h-2.8v-18h2.6v3.3c1.5-2.5,3.4-3.8,5.7-3.8c1.2,0,2.4,0.3,3.4,1c0.8,0.6,1.5,1.4,1.9,2.4c0.4,1.5,0.6,3.1,0.5,4.7L265.6,28.3z
	 M296.9,3.9h2.5v15.9c0,3.2-0.8,5.5-2.3,6.9c-1.7,1.4-3.9,2.2-6.1,2.1c-2.8,0-4.9-0.7-6.3-2.1s-2-3.7-2-6.8V3.9h3v15.9
	c-0.1,1.4,0.1,2.7,0.7,4c0.5,0.8,1.2,1.4,2,1.7c0.9,0.4,1.8,0.6,2.8,0.5c1.6,0.1,3.1-0.4,4.3-1.5c1-1,1.5-2.6,1.5-4.8L296.9,3.9z
	 M320.1,28.3h-2.6V16.7c0.1-1.3-0.3-2.5-1.1-3.5c-0.7-0.7-1.7-1-2.6-1c-1.4,0-2.7,0.6-3.6,1.7c-1,1.3-1.5,2.9-1.5,4.5v9.9H306v-18
	h2.6v3.3c1.5-2.5,3.4-3.8,5.7-3.8c1.2,0,2.4,0.3,3.4,1c0.9,0.6,1.5,1.4,1.9,2.3c0.4,1.5,0.6,3.1,0.5,4.7L320.1,28.3z M329.9,3.9V7
	h-3V3.9L329.9,3.9z M329.8,10.3v18H327v-18H329.8z M349.8,10.3l-6.2,18h-2.9l-6.5-18h3.1l5,14.6l5-14.6L349.8,10.3z M365.6,22.9
	l2.6,0.5c-0.5,1.5-1.5,2.9-2.8,3.8c-1.4,1-3.1,1.6-4.9,1.5c-2.3,0.1-4.5-0.9-6-2.6c-1.6-1.9-2.4-4.3-2.3-6.8c-0.1-2.5,0.7-5,2.4-6.9
	c1.5-1.7,3.7-2.7,6-2.7c2.2-0.1,4.3,0.8,5.7,2.4c1.4,1.6,2.2,4.1,2.2,7.3h-13.1c0,2.7,0.6,4.6,1.7,5.5c1,0.9,2.3,1.4,3.6,1.4
	C363.1,26.4,364.7,25.3,365.6,22.9z M365.5,17.4c0-0.9-0.2-1.8-0.5-2.7c-0.3-0.8-0.9-1.5-1.6-2c-0.8-0.6-1.7-0.9-2.7-0.8
	c-1.3,0-2.6,0.5-3.5,1.5c-1,1.1-1.6,2.5-1.6,4L365.5,17.4z M376.8,28.3H374v-18h2.5v4.2c0.5-1.5,1.4-2.8,2.5-3.9
	c0.8-0.6,1.7-0.9,2.7-0.9c0.3,0,0.6,0,1.1,0.1v2.7h-0.6c-1.5,0-2.9,0.6-3.9,1.7c-1.1,1.3-1.6,2.9-1.6,4.5L376.8,28.3z M385,23.6
	l2.7-0.6c0.6,2.3,2.5,3.4,5.6,3.4c1.1,0,2.1-0.2,3-0.8c0.8-0.5,1.2-1.3,1.2-2.2c0-1.4-1-2.3-3.1-2.7l-3.8-0.7
	c-1.3-0.2-2.6-0.8-3.5-1.7c-0.9-0.9-1.4-2.1-1.3-3.3c0-1.5,0.6-2.9,1.8-3.8c1.4-1.1,3.1-1.6,4.9-1.5c3.9,0,6.3,1.5,7.2,4.6l-2.6,0.6
	c-0.7-1.9-2.2-2.8-4.5-2.8c-1,0-2,0.2-2.8,0.7c-0.7,0.4-1.1,1.2-1.1,2c0,1.3,0.9,2.2,2.8,2.5l3.5,0.6c3.7,0.7,5.5,2.4,5.5,5.3
	c0,1.6-0.7,3.1-2,4c-1.6,1.1-3.5,1.6-5.5,1.5C388.7,28.7,386,27,385,23.6L385,23.6z M408.5,3.9V7h-3V3.9L408.5,3.9z M408.4,10.3v18
	h-2.8v-18H408.4z M423.4,26.3v2.2c-0.9,0.1-1.7,0.2-2.6,0.2c-3.5,0-5.2-1.8-5.2-5.5V12.4h-3.2v-2.2h3.2l0.1-4.5l2.6-0.2v4.8h4v2.2
	h-4v11.3c0,1.9,1,2.8,2.9,2.8C422,26.5,422.7,26.5,423.4,26.3L423.4,26.3z M440.1,10.3l-7.2,20.1c-1,2.9-2.7,4.4-5,4.4
	c-0.8,0-1.6-0.1-2.4-0.4v-2.2c0.6,0.2,1.2,0.2,1.9,0.2c0.8,0,1.6-0.2,2.2-0.8c0.6-0.5,1.2-1.8,1.8-3.7l-6.2-17.6h2.8l4.8,13.5
	l4.9-13.5L440.1,10.3z M116,43.1h7.4v41.1h22v6.5H116V43.1z M161.6,43.1h7.4v47.6h-7.4L161.6,43.1z M187.9,43.1h17.3
	c8.9,0,13.4,5.4,13.4,12c0.3,4.2-2.4,8-6.4,9.2c6.4,1.5,9.7,6,9.7,12.1c0,8.2-5.5,14.3-15.5,14.3h-18.6L187.9,43.1z M204.8,61.7
	c4.4,0,6.5-2.5,6.5-6s-2-6-6.6-6h-9.4v12H204.8z M206,84.2c5.7,0,8.5-3.4,8.5-8.1s-2.9-8.1-8.8-8.1h-10.4v16.2H206z M270.7,90.7
	h-8.5l-8.5-12.5c-1.3,0.2-2.7,0.3-4,0.3h-4.5v12.2h-7.4V43.1h11.9c13.2,0,20.5,6.9,20.5,17.8c0,7.3-3.3,12.4-9.5,15.1L270.7,90.7z
	 M249.3,72.1c9.4,0,13.2-4.1,13.2-11.2s-3.9-11.3-13.2-11.3h-4.2v22.5H249.3z M303.6,42.6h0.8l20.9,48.1h-7.7l-2.7-6.7h-21.8
	l-2.7,6.7h-7.1L303.6,42.6z M312.2,77.8l-6-14.8c-0.9-2.3-1.7-4.7-2.4-7.1c-0.6,2.4-1.4,4.8-2.3,7.1l-6,14.8H312.2z M373.2,90.7
	h-8.5l-8.5-12.5c-1.3,0.2-2.7,0.3-4,0.3h-4.5v12.2h-7.4V43.1h11.9c13.2,0,20.5,6.9,20.5,17.8c0,7.3-3.3,12.4-9.5,15.1L373.2,90.7z
	 M351.9,72.1c9.5,0,13.2-4.1,13.2-11.2s-3.9-11.3-13.2-11.3h-4.2v22.5H351.9z M402.4,75.7l-18.1-32.5h8.2l10.8,19.6
	c1.1,2.2,2.1,4.5,2.9,6.9c0.8-2.3,1.8-4.6,2.9-6.9l10.4-19.6h7.6l-17.3,32.1v15.5h-7.4L402.4,75.7z"/>
</svg>
