<?xml version="1.0" encoding="utf-8"?>
<!-- Generator: Adobe Illustrator 28.0.0, SVG Export Plug-In . SVG Version: 6.00 Build 0)  -->
<svg version="1.1" xmlns="http://www.w3.org/2000/svg" xmlns:xlink="http://www.w3.org/1999/xlink" x="0px" y="0px"
	 width="2206.233px" height="967.332px" viewBox="0 0 2206.233 967.332" style="enable-background:new 0 0 2206.233 967.332;"
	 xml:space="preserve">
<style type="text/css">
	.st0{fill:#FFFFFF;}
	.st1{clip-path:url(#SVGID_00000041288833950129467590000003325351697069275286_);fill:#FFFFFF;}
	.st2{fill:#D18746;}
	.st3{fill:#863A20;}
	.st4{fill:#EDC2A0;}
	.st5{fill:#636466;}
	.st6{fill:#E6B289;}
	.st7{fill:#939598;}
	.st8{fill:#DC9D67;}
	.st9{fill:#77787B;}
	.st10{fill:#EE7623;}
	.st11{fill:#A4541C;}
	.st12{clip-path:url(#SVGID_00000008132450148391638290000012639025029611397001_);}
	.st13{clip-path:url(#SVGID_00000124860592583193893880000001073801468654239678_);}
	.st14{clip-path:url(#SVGID_00000117646848827315744610000000609470699258080182_);}
	.st15{clip-path:url(#SVGID_00000005963832910032543310000003365101878787697283_);}
	.st16{clip-path:url(#SVGID_00000166648282383105624720000011345844630168963211_);}
	.st17{clip-path:url(#SVGID_00000128467362319590922440000008890785706811794844_);}
	.st18{clip-path:url(#SVGID_00000096738463943672082620000008933774505524987786_);}
	.st19{clip-path:url(#SVGID_00000019666742758737311320000006397103972518102945_);}
	.st20{clip-path:url(#SVGID_00000069361369995760429780000001248841732345803700_);}
	.st21{clip-path:url(#SVGID_00000091008256394274291850000004157084978213455286_);}
	.st22{clip-path:url(#SVGID_00000080894846089865868120000014466838617099547060_);}
	.st23{clip-path:url(#SVGID_00000042699871355458192030000010451223599535594372_);}
	.st24{clip-path:url(#SVGID_00000095321044815492555680000013895394475419497090_);}
	.st25{clip-path:url(#SVGID_00000101811567961113339020000002166094234996093073_);}
	.st26{clip-path:url(#SVGID_00000077283250667608045840000017330378048630438587_);}
	.st27{clip-path:url(#SVGID_00000057120107949237529440000004738422808992512934_);}
	.st28{clip-path:url(#SVGID_00000170251232407014137770000016066997943977708445_);}
	.st29{clip-path:url(#SVGID_00000049920347121501269160000015706539290358534573_);}
	.st30{clip-path:url(#SVGID_00000057124414051148832330000017462382558922120579_);}
	.st31{clip-path:url(#SVGID_00000133507119520932969630000014855297646476166272_);}
	.st32{clip-path:url(#SVGID_00000045585868262872113960000000426812242221127069_);}
	.st33{clip-path:url(#SVGID_00000049927147353736030000000010026297914833606810_);}
	.st34{clip-path:url(#SVGID_00000178191472372939609910000002646012893342863787_);}
	.st35{clip-path:url(#SVGID_00000129894650457924920570000018308641385798879921_);}
	.st36{clip-path:url(#SVGID_00000148627023212041661890000015011099393682573744_);}
	.st37{clip-path:url(#SVGID_00000079454242866567667110000001576227147130913209_);}
	.st38{fill:#C06B13;}
	.st39{clip-path:url(#SVGID_00000101073635147237592790000001070607121209209730_);fill:#EE7623;}
	.st40{clip-path:url(#SVGID_00000154393339005498499230000004285355698952610177_);fill:#C06B13;}
	.st41{clip-path:url(#SVGID_00000133527373171603350330000008318153513984379321_);fill:#C06B13;}
	.st42{clip-path:url(#SVGID_00000049914000690593464290000005485521596190508201_);fill:#EE7623;}
	.st43{clip-path:url(#SVGID_00000162339570897888314200000008258172798915720077_);fill:#A4541C;}
	.st44{clip-path:url(#SVGID_00000153682236994557185960000000179250581322252425_);fill:#939598;}
	.st45{clip-path:url(#SVGID_00000108993269179642184970000000176839571300218241_);fill:#939598;}
	.st46{clip-path:url(#SVGID_00000043458501282622719310000003665832537452641188_);fill:#939598;}
	.st47{fill:#4D4D4F;}
	.st48{clip-path:url(#SVGID_00000174597867401194531230000016874765214244453535_);fill:#C06B13;}
	.st49{fill:#A7A9AC;}
	.st50{clip-path:url(#SVGID_00000116225047839406263760000008985517111140131459_);fill:#863A20;}
	.st51{clip-path:url(#SVGID_00000027585472309639166430000005150982639823121078_);fill:#A7A9AC;}
	.st52{clip-path:url(#SVGID_00000163776761649250037130000002957504454998391445_);fill:#4D4D4F;}
	.st53{clip-path:url(#SVGID_00000039856296949270007440000003917474659151515570_);fill:#C7C8CA;}
	.st54{fill:#C7C8CA;}
	.st55{clip-path:url(#SVGID_00000042719117659055655710000008723773153183765678_);}
	.st56{clip-path:url(#SVGID_00000059303045125110838310000018275125765519367867_);}
	.st57{fill:#414042;}
	.st58{fill:#808285;}
	.st59{fill:#BCBEC0;}
	.st60{fill:#E0A473;}
	.st61{clip-path:url(#SVGID_00000071540553865121032890000006241683000399544751_);fill:#C06B13;}
	.st62{fill:#F8995C;}
	.st63{clip-path:url(#SVGID_00000148655875193443251760000000648422950992627082_);}
	.st64{clip-path:url(#SVGID_00000103263966738154079630000010424932030380228776_);fill:#E0A473;}
	.st65{clip-path:url(#SVGID_00000099622376346418691220000018347546641865957551_);}
	.st66{clip-path:url(#SVGID_00000088812736238574437830000008797671151345728936_);fill:#808285;}
	.st67{fill:#FDAD7B;}
	.st68{clip-path:url(#SVGID_00000097498101688649338890000001590222564551212449_);fill:#E0A473;}
	.st69{clip-path:url(#SVGID_00000131347848942616735050000004111900774777503104_);fill:#808285;}
	.st70{clip-path:url(#SVGID_00000105396383458674423530000007124956984978051753_);fill:#FDAD7B;}
	.st71{clip-path:url(#SVGID_00000016788505651984532130000012307223746173388439_);fill:#E0A473;}
	.st72{clip-path:url(#SVGID_00000141413362538702090300000002775269979268159125_);fill:#EE7623;}
	.st73{clip-path:url(#SVGID_00000148646439089508762730000014680487720167760534_);fill:#414042;}
	.st74{clip-path:url(#SVGID_00000026131453260589693580000010557867865944936091_);fill:#EE7623;}
	.st75{clip-path:url(#SVGID_00000098193512678753006560000009620179222964765612_);fill:#FDAD7B;}
	.st76{fill:#E2E3E4;}
	.st77{fill:none;}
</style>
<g id="Layer_1">
	<polygon class="st0" points="924.816,420.254 936.742,418.151 935.609,413.333 	"/>
	<g>
		<g>
			<defs>
				<polyline id="SVGID_1_" points="2174.006,844.79 2174.006,29.029 928.787,29.029 928.787,844.79 				"/>
			</defs>
			<clipPath id="SVGID_00000118381352955952679280000008326039798671510697_">
				<use xlink:href="#SVGID_1_"  style="overflow:visible;"/>
			</clipPath>
			<path style="clip-path:url(#SVGID_00000118381352955952679280000008326039798671510697_);fill:#FFFFFF;" d="M1801.517,654.075
				l54.791-86.101l10.436-48.268l11.741-32.614l26.091,6.522l9.132-7.298l23.482-8.357l16.959-33.917
				c0,0,118.714,55.071,157.85-3.122c0,0,10.437-22.97,10.437-28.189c0-5.217,43.309-40.441,43.309-63.922l6.264-18.264
				l-6.264-22.176L2112,249.664l-13.045-6.522c0,0-10.437-80.882-101.755-106.973c0,0-18.264-60.009-31.309-70.445l-15.655-36.528
				c0,0-39.136,16.959-46.964,31.309l-18.264-10.436c0,0-31.309,26.091-35.223,36.526c0,0-176.114,19.569-208.728,78.274
				c0,0-114.8,37.831-138.282,101.754c0,0-71.917,36.728-62.785,130.656l56.262,12.845l52.182,30.797l10.436-12.534l30.005-5.217
				l24.786,48.268l35.223-30.517h10.436l30.005,47.476l13.046,18.264l15.655,26.091l13.046,14.35l35.223,39.137l16.959,30.004
				L1801.517,654.075z"/>
		</g>
	</g>
	<polygon class="st2" points="1644.588,182.833 1496.313,285.983 1626.432,305.146 	"/>
	<polygon class="st3" points="1629.044,297.48 1674.848,232.925 1712.37,255.116 	"/>
	<polygon class="st4" points="2003.66,152.241 2048.649,242.114 2079.151,197.994 	"/>
	<polygon class="st5" points="1854.117,116.859 1842.271,166.279 1870.662,131.092 	"/>
	<polygon class="st6" points="1820.006,92.757 1753.215,195.293 1696.023,122.903 	"/>
	<polygon class="st7" points="1915.675,441.626 1943.888,449.796 1929.896,470.835 	"/>
	<polygon class="st6" points="1706.593,333.779 1814.032,207.015 1854.781,236.054 	"/>
	<polygon class="st8" points="1939.02,114.714 1961.556,136.059 1878.85,190.596 	"/>
	<polygon class="st6" points="1809.794,203.737 1681.909,278.698 1684.704,339.158 	"/>
	<polygon class="st9" points="1908.245,358.316 1943.888,386.069 1890.219,402.409 	"/>
	<polygon class="st7" points="1870.662,96.025 1899.921,122.903 1872.909,151.518 	"/>
	<polygon class="st3" points="1912.943,166.289 1878.85,198.357 1904.517,208.366 	"/>
	<polygon class="st3" points="1945.011,131.974 1908.245,147.906 1920.296,169.557 	"/>
	<polygon class="st10" points="1954.467,131.092 1959.934,181.792 1937.85,150.033 	"/>
	<polygon class="st10" points="1940.16,154.374 1904.517,212.791 1927.598,223.004 	"/>
	<polygon class="st10" points="1939.02,211.191 1985.454,221.404 1954.774,236.519 	"/>
	<polygon class="st10" points="2049.386,285.609 2049.386,317.359 2008.535,308.859 	"/>
	<polygon class="st11" points="1967.173,243.906 1948.892,280.162 1992.943,253.302 	"/>
	<polygon class="st3" points="1983.207,259.43 2002.203,305.591 2054.659,277.813 	"/>
	<polygon class="st3" points="2060.416,273.319 2161.318,308.125 2119.241,333.779 	"/>
	<polygon class="st11" points="2113.847,301.506 2161.318,308.859 2169.08,333.779 	"/>
	<polygon class="st10" points="2049.386,268.621 2065.726,347.628 2145.386,345.671 	"/>
	<polygon class="st10" points="1970.135,131.092 2010.577,175.276 2028.143,159.753 	"/>
	<polygon points="2108.132,306.04 2160.422,318.315 2143.371,351.793 	"/>
	<polygon points="1966.458,426.92 1998.322,444.894 2054.697,376.264 	"/>
	<g>
		<g>
			<defs>
				<polyline id="SVGID_00000044151081635098797540000003414771897976251014_" points="2174.006,844.79 2174.006,29.029 
					928.787,29.029 928.787,844.79 				"/>
			</defs>
			<clipPath id="SVGID_00000074413059614505087810000004577239382681515156_">
				<use xlink:href="#SVGID_00000044151081635098797540000003414771897976251014_"  style="overflow:visible;"/>
			</clipPath>
			<path style="clip-path:url(#SVGID_00000074413059614505087810000004577239382681515156_);" d="M2060.416,376.264
				c0,2.451-54.74,72.715-54.74,72.715l18.791,7.353L2060.416,376.264z"/>
		</g>
	</g>
	<polygon points="2026.918,456.333 2040.807,460.009 2058.781,404.043 	"/>
	<g>
		<g>
			<defs>
				<polyline id="SVGID_00000074399903361282457200000000167539076126452870_" points="2174.006,844.79 2174.006,29.029 
					928.787,29.029 928.787,844.79 				"/>
			</defs>
			<clipPath id="SVGID_00000114763717418987522690000005556353865467990203_">
				<use xlink:href="#SVGID_00000074399903361282457200000000167539076126452870_"  style="overflow:visible;"/>
			</clipPath>
			<path style="clip-path:url(#SVGID_00000114763717418987522690000005556353865467990203_);" d="M2065.726,410.579l-19.609,49.43
				c0,0,13.072-4.902,14.298-5.311C2061.641,454.29,2065.726,410.579,2065.726,410.579"/>
		</g>
		<g>
			<defs>
				<polyline id="SVGID_00000142860167286687333480000001463289237532992918_" points="2174.006,844.79 2174.006,29.029 
					928.787,29.029 928.787,844.79 				"/>
			</defs>
			<clipPath id="SVGID_00000084519777696715782120000006789778296404458123_">
				<use xlink:href="#SVGID_00000142860167286687333480000001463289237532992918_"  style="overflow:visible;"/>
			</clipPath>
			<path style="clip-path:url(#SVGID_00000084519777696715782120000006789778296404458123_);" d="M2084.109,410.579
				c2.042,3.268,16.341,40.034,16.341,40.034l-6.945,2.86L2084.109,410.579z"/>
		</g>
	</g>
	<polygon points="2075.122,417.932 2075.939,456.333 2065.726,456.333 	"/>
	<g>
		<g>
			<defs>
				<polyline id="SVGID_00000141436259471580080900000017849657825573238956_" points="2174.006,844.79 2174.006,29.029 
					928.787,29.029 928.787,844.79 				"/>
			</defs>
			<clipPath id="SVGID_00000008860147832355987070000008900126915634497689_">
				<use xlink:href="#SVGID_00000141436259471580080900000017849657825573238956_"  style="overflow:visible;"/>
			</clipPath>
			<path style="clip-path:url(#SVGID_00000008860147832355987070000008900126915634497689_);" d="M2095.548,412.622
				c0.408,1.226,8.579,37.175,8.579,37.175l7.354-2.451L2095.548,412.622z"/>
		</g>
	</g>
	<polygon points="2079.207,419.975 2080.433,456.332 2085.743,453.473 	"/>
	<g>
		<g>
			<defs>
				<polyline id="SVGID_00000040555847871303504220000011531452064312334472_" points="2174.006,844.79 2174.006,29.029 
					928.787,29.029 928.787,844.79 				"/>
			</defs>
			<clipPath id="SVGID_00000162322221794418276580000011338250867812197793_">
				<use xlink:href="#SVGID_00000040555847871303504220000011531452064312334472_"  style="overflow:visible;"/>
			</clipPath>
			<path style="clip-path:url(#SVGID_00000162322221794418276580000011338250867812197793_);" d="M2161.21,325.469
				c1.456,0.742,12.796,9.08,12.796,9.08l-25.519,15.891L2161.21,325.469z"/>
		</g>
		<g>
			<defs>
				<polyline id="SVGID_00000053525647443172205570000000829826442161661071_" points="2174.006,844.79 2174.006,29.029 
					928.787,29.029 928.787,844.79 				"/>
			</defs>
			<clipPath id="SVGID_00000181769898256645857760000006854948513490161546_">
				<use xlink:href="#SVGID_00000053525647443172205570000000829826442161661071_"  style="overflow:visible;"/>
			</clipPath>
			<path style="clip-path:url(#SVGID_00000181769898256645857760000006854948513490161546_);" d="M2082.475,333.779
				c0,1.226-29.005,30.23-27.779,30.23c1.226,0,31.047-7.353,31.047-7.353L2082.475,333.779z"/>
		</g>
	</g>
	<polygon points="1986.066,409.898 2036.313,382.12 2007.309,385.388 	"/>
	<polygon points="2079.207,374.221 2111.48,364.009 2148.486,369.115 	"/>
	<polygon points="2074.305,386.477 2130.68,383.617 2095.548,404.043 	"/>
	<polygon points="2100.45,355.022 2130.68,351.345 2115.564,345.217 	"/>
	<g>
		<g>
			<defs>
				<polyline id="SVGID_00000125589587671895595450000003292597953282897596_" points="2174.006,844.79 2174.006,29.029 
					928.787,29.029 928.787,844.79 				"/>
			</defs>
			<clipPath id="SVGID_00000085244152478965962040000007204941217460692393_">
				<use xlink:href="#SVGID_00000125589587671895595450000003292597953282897596_"  style="overflow:visible;"/>
			</clipPath>
			<path style="clip-path:url(#SVGID_00000085244152478965962040000007204941217460692393_);" d="M1975.037,379.941
				c0.817,2.179,4.085,17.158,4.085,17.158l29.412-14.979L1975.037,379.941z"/>
		</g>
	</g>
	<polygon points="2005.675,310.493 1994.645,337.955 1973.402,325.469 	"/>
	<polygon points="1979.939,231.651 1991.786,239.004 1982.39,245.132 	"/>
	<polygon points="1998.322,337.955 1987.701,353.387 2037.369,337.955 	"/>
	<polygon points="2025.352,314.987 2023.241,325.469 2033.045,324.224 	"/>
	<polygon points="2042.85,310.493 2042.85,324.224 2051.428,322.749 	"/>
	<polygon points="2039.173,333.779 2039.173,325.47 2047.14,329.625 	"/>
	<g>
		<g>
			<defs>
				<polyline id="SVGID_00000083807995649617994800000005199955439404420022_" points="2174.006,844.79 2174.006,29.029 
					928.787,29.029 928.787,844.79 				"/>
			</defs>
			<clipPath id="SVGID_00000052095650057771068630000003066200302955383169_">
				<use xlink:href="#SVGID_00000083807995649617994800000005199955439404420022_"  style="overflow:visible;"/>
			</clipPath>
			<path style="clip-path:url(#SVGID_00000052095650057771068630000003066200302955383169_);" d="M1962.781,348.894
				c-0.817,2.451-5.31,13.072-5.31,13.072l12.664-2.451L1962.781,348.894z"/>
		</g>
	</g>
	<polygon points="1983.207,195.293 1989.539,214.902 2008.535,209.591 	"/>
	<g>
		<g>
			<defs>
				<polyline id="SVGID_00000146492758521095394700000014835183577482328985_" points="2174.006,844.79 2174.006,29.029 
					928.787,29.029 928.787,844.79 				"/>
			</defs>
			<clipPath id="SVGID_00000049222024115724469530000009124449626057540763_">
				<use xlink:href="#SVGID_00000146492758521095394700000014835183577482328985_"  style="overflow:visible;"/>
			</clipPath>
			<path style="clip-path:url(#SVGID_00000049222024115724469530000009124449626057540763_);" d="M1985.862,253.302
				c0,1.702,37.379,15.523,37.379,15.523l-6.128,8.17L1985.862,253.302z"/>
		</g>
	</g>
	<polygon points="1975.037,147.906 1975.037,169.557 1995.871,156.485 	"/>
	<polygon points="1995.871,166.289 1987.7,184.263 2009.147,166.289 	"/>
	<polygon points="1943.99,158.731 1931.326,205.098 1952.569,198.561 	"/>
	<polygon points="1941.947,205.098 1959.513,199.379 1968.5,223.004 	"/>
	<polygon points="1915.394,214.902 1939.496,208.366 1952.569,238.391 	"/>
	<polygon points="1952.569,241.863 1977.488,233.693 1979.939,249.625 	"/>
	<polygon points="1985.453,259.43 2004.552,296.195 1978.305,279.855 	"/>
	<polygon points="1957.471,252.077 1944.807,308.86 1926.016,251.464 	"/>
	<polygon points="1941.13,312.945 1928.466,345.217 1961.556,329.624 	"/>
	<g>
		<g>
			<defs>
				<polyline id="SVGID_00000160898216408449491100000000199726294163286186_" points="2174.006,844.79 2174.006,29.029 
					928.787,29.029 928.787,844.79 				"/>
			</defs>
			<clipPath id="SVGID_00000070112208519583283190000006257574776557891741_">
				<use xlink:href="#SVGID_00000160898216408449491100000000199726294163286186_"  style="overflow:visible;"/>
			</clipPath>
			<path style="clip-path:url(#SVGID_00000070112208519583283190000006257574776557891741_);" d="M1903.547,345.671
				c0.408,1.588,27.779,21.197,27.779,21.197l9.804-33.089L1903.547,345.671z"/>
		</g>
		<g>
			<defs>
				<polyline id="SVGID_00000119119323949049473240000005646634633059608988_" points="2174.006,844.79 2174.006,29.029 
					928.787,29.029 928.787,844.79 				"/>
			</defs>
			<clipPath id="SVGID_00000070089719430192694610000012381073326336370596_">
				<use xlink:href="#SVGID_00000119119323949049473240000005646634633059608988_"  style="overflow:visible;"/>
			</clipPath>
			<path style="clip-path:url(#SVGID_00000070089719430192694610000012381073326336370596_);" d="M1983.207,366.868
				c0,0,14.298-8.987,14.298-6.945c0,2.042,2.86,11.03,2.86,11.03L1983.207,366.868z"/>
		</g>
	</g>
	<polygon points="1941.13,369.115 1948.484,379.941 1952.569,365.288 	"/>
	<polygon points="1975.037,400.775 1957.471,412.622 1966.458,419.975 	"/>
	<polygon points="1926.016,369.115 1911.308,390.562 1937.045,393.83 	"/>
	<polygon points="1933.981,424.877 1915.394,438.154 1933.981,444.894 	"/>
	<polygon points="1957.471,324.224 1966.458,329.624 1975.037,320.229 	"/>
	<polygon points="1937.045,438.154 1948.483,435.294 1933.981,460.009 	"/>
	<g>
		<g>
			<defs>
				<polyline id="SVGID_00000152968708138432231360000008942095116550017921_" points="2174.006,844.79 2174.006,29.029 
					928.787,29.029 928.787,844.79 				"/>
			</defs>
			<clipPath id="SVGID_00000149353176031712155040000012612060713919384469_">
				<use xlink:href="#SVGID_00000152968708138432231360000008942095116550017921_"  style="overflow:visible;"/>
			</clipPath>
			<path style="clip-path:url(#SVGID_00000149353176031712155040000012612060713919384469_);" d="M1911.309,402.409
				c4.085,8.17,12.868,35.745,12.868,35.745l-51.268-17.872L1911.309,402.409"/>
		</g>
		<g>
			<defs>
				<polyline id="SVGID_00000092436607908500964950000015605415270215175846_" points="2174.006,844.79 2174.006,29.029 
					928.787,29.029 928.787,844.79 				"/>
			</defs>
			<clipPath id="SVGID_00000005973395294813169090000017416353206649774478_">
				<use xlink:href="#SVGID_00000092436607908500964950000015605415270215175846_"  style="overflow:visible;"/>
			</clipPath>
			<path style="clip-path:url(#SVGID_00000005973395294813169090000017416353206649774478_);" d="M1820.619,366.868
				c0,0,66.996-22.786,66.996-21.197c0,1.588-26.962,64.227-26.962,64.227L1820.619,366.868z"/>
		</g>
	</g>
	<polygon points="1887.615,397.098 1872.909,416.298 1911.309,400.775 	"/>
	<g>
		<g>
			<defs>
				<polyline id="SVGID_00000138573039472019990850000010244541336730183568_" points="2174.006,844.79 2174.006,29.029 
					928.787,29.029 928.787,844.79 				"/>
			</defs>
			<clipPath id="SVGID_00000173156697351921539950000007711871564591004853_">
				<use xlink:href="#SVGID_00000138573039472019990850000010244541336730183568_"  style="overflow:visible;"/>
			</clipPath>
			<path style="clip-path:url(#SVGID_00000173156697351921539950000007711871564591004853_);" d="M1896.603,382.12
				c-0.817,1.498-12.256,11.711-12.256,11.711l14.196,2.179L1896.603,382.12z"/>
		</g>
		<g>
			<defs>
				<polyline id="SVGID_00000083772679123966139440000001736656544202734743_" points="2174.006,844.79 2174.006,29.029 
					928.787,29.029 928.787,844.79 				"/>
			</defs>
			<clipPath id="SVGID_00000093893328226406710400000011448421518456531876_">
				<use xlink:href="#SVGID_00000083772679123966139440000001736656544202734743_"  style="overflow:visible;"/>
			</clipPath>
			<path style="clip-path:url(#SVGID_00000093893328226406710400000011448421518456531876_);" d="M1869.232,398.732
				c-0.817,3.676-7.354,21.549-7.354,21.549l17.566-16.238L1869.232,398.732z"/>
		</g>
		<g>
			<defs>
				<polyline id="SVGID_00000021840687443139580030000017008117996535762098_" points="2174.006,844.79 2174.006,29.029 
					928.787,29.029 928.787,844.79 				"/>
			</defs>
			<clipPath id="SVGID_00000119092542782411291480000014722126842440687804_">
				<use xlink:href="#SVGID_00000021840687443139580030000017008117996535762098_"  style="overflow:visible;"/>
			</clipPath>
			<path style="clip-path:url(#SVGID_00000119092542782411291480000014722126842440687804_);" d="M1867.598,324.224
				c-2.86,4.244-25.328,31.206-25.328,31.206l33.907-10.213L1867.598,324.224z"/>
		</g>
	</g>
	<polygon points="2008.535,296.196 2005.675,301.506 2025.352,296.196 	"/>
	<polygon points="1900.688,212.451 1866.781,280.162 1915.394,265.149 	"/>
	<g>
		<g>
			<defs>
				<polyline id="SVGID_00000029040237762240628630000008744628219393734288_" points="2174.006,844.79 2174.006,29.029 
					928.787,29.029 928.787,844.79 				"/>
			</defs>
			<clipPath id="SVGID_00000128487084600666927460000016390573665125536174_">
				<use xlink:href="#SVGID_00000029040237762240628630000008744628219393734288_"  style="overflow:visible;"/>
			</clipPath>
			<path style="clip-path:url(#SVGID_00000128487084600666927460000016390573665125536174_);" d="M1866.781,285.983
				c0,1.226-21.651,19.609-21.651,19.609l39.217-4.085L1866.781,285.983z"/>
		</g>
	</g>
	<polygon points="1917.845,265.149 1928.466,265.149 1922.339,271.685 	"/>
	<polygon points="1839.002,314.987 1881.896,308.859 1854.117,333.779 	"/>
	<polygon points="1876.177,211.191 1879.445,247.991 1895.785,216.944 	"/>
	<polygon points="1903.547,208.366 1912.943,247.991 1911.309,211.191 	"/>
	<polygon points="1899.462,199.378 1910.492,208.366 1941.13,147.905 	"/>
	<polygon points="1948.892,118.493 1985.453,131.974 1955.224,131.974 	"/>
	<polygon points="1957.471,136.059 1966.254,136.059 1961.556,158.731 	"/>
	<g>
		<g>
			<defs>
				<polyline id="SVGID_00000174596973441534048190000017916173043008818845_" points="2174.006,844.79 2174.006,29.029 
					928.787,29.029 928.787,844.79 				"/>
			</defs>
			<clipPath id="SVGID_00000128459361027820549730000007732505551806387615_">
				<use xlink:href="#SVGID_00000174596973441534048190000017916173043008818845_"  style="overflow:visible;"/>
			</clipPath>
			<path style="clip-path:url(#SVGID_00000128459361027820549730000007732505551806387615_);" d="M1937.045,147.906
				c-0.408,1.634-16.749,18.383-16.749,18.383l5.719-18.894L1937.045,147.906z"/>
		</g>
	</g>
	<polygon points="1887.615,460.009 1881.896,482.477 1898.543,493.916 	"/>
	<g>
		<g>
			<defs>
				<polyline id="SVGID_00000137094118637610224670000018267022055446274711_" points="2174.006,844.79 2174.006,29.029 
					928.787,29.029 928.787,844.79 				"/>
			</defs>
			<clipPath id="SVGID_00000139996127166320404140000016695046441717579403_">
				<use xlink:href="#SVGID_00000137094118637610224670000018267022055446274711_"  style="overflow:visible;"/>
			</clipPath>
			<path style="clip-path:url(#SVGID_00000139996127166320404140000016695046441717579403_);" d="M1912.943,460.009
				c0,0,1.43,16.953-1.634,16.953c-3.064,0,14.706,4.698,14.706,4.698L1912.943,460.009z"/>
		</g>
	</g>
	<polygon points="1864.738,431.209 1854.117,481.66 1845.13,453.473 	"/>
	<polygon points="1872.909,195.293 1820.619,223.378 1820.619,247.991 	"/>
	<polygon points="2009.147,184.263 2012.535,212.451 2023.241,208.366 	"/>
	<polygon points="2154.373,350.12 2169.08,339.827 2159.276,355.43 	"/>
	<g>
		<g>
			<defs>
				<polyline id="SVGID_00000072961921837924173240000017600387756048710049_" points="2174.006,844.79 2174.006,29.029 
					928.787,29.029 928.787,844.79 				"/>
			</defs>
			<clipPath id="SVGID_00000152254982121344915840000011775879395067176067_">
				<use xlink:href="#SVGID_00000072961921837924173240000017600387756048710049_"  style="overflow:visible;"/>
			</clipPath>
			<path style="clip-path:url(#SVGID_00000152254982121344915840000011775879395067176067_);" d="M1834.1,386.069
				c0,2.451,27.779,30.23,27.779,30.23l-13.889,5.719L1834.1,386.069z"/>
		</g>
	</g>
	<polygon points="1879.445,424.877 1912.943,437.132 1892.109,441.626 	"/>
	<polygon points="1995.871,379.941 2008.535,376.264 2008.535,379.941 	"/>
	<polygon points="1793.249,431.209 1770.372,447.652 1772.006,422.018 	"/>
	<g>
		<g>
			<defs>
				<polyline id="SVGID_00000078741423924022730770000010695938828706745520_" points="2174.006,844.79 2174.006,29.029 
					928.787,29.029 928.787,844.79 				"/>
			</defs>
			<clipPath id="SVGID_00000057119133916668354250000009650590475260803259_">
				<use xlink:href="#SVGID_00000078741423924022730770000010695938828706745520_"  style="overflow:visible;"/>
			</clipPath>
			<path style="clip-path:url(#SVGID_00000057119133916668354250000009650590475260803259_);" d="M1828.789,259.43
				c-2.042,0-37.992,8.987-37.992,8.987l18.996,9.396L1828.789,259.43z"/>
		</g>
	</g>
	<polygon points="1785.078,291.056 1826.747,285.983 1807.955,280.162 	"/>
	<polygon points="1788.347,310.493 1770.372,329.624 1803.053,321.319 	"/>
	<g>
		<g>
			<defs>
				<polyline id="SVGID_00000107567504447336158760000016087058364173755011_" points="2174.006,844.79 2174.006,29.029 
					928.787,29.029 928.787,844.79 				"/>
			</defs>
			<clipPath id="SVGID_00000182498070850074361650000008719525368128898478_">
				<use xlink:href="#SVGID_00000107567504447336158760000016087058364173755011_"  style="overflow:visible;"/>
			</clipPath>
			<path style="clip-path:url(#SVGID_00000182498070850074361650000008719525368128898478_);" d="M1779.359,339.827
				c-1.634,0-20.426,11.518-20.426,11.518l34.315-6.128L1779.359,339.827z"/>
		</g>
	</g>
	<polygon points="1753.215,355.43 1770.372,361.966 1748.312,386.069 	"/>
	<polygon points="1770.372,382.12 1740.959,400.775 1795.699,386.069 	"/>
	<polygon points="1772.006,410.579 1754.031,420.281 1751.172,410.375 	"/>
	<g>
		<g>
			<defs>
				<polyline id="SVGID_00000173135234728951847170000003155930888167829949_" points="2174.006,844.79 2174.006,29.029 
					928.787,29.029 928.787,844.79 				"/>
			</defs>
			<clipPath id="SVGID_00000067220400717233573590000003933655945581694356_">
				<use xlink:href="#SVGID_00000173135234728951847170000003155930888167829949_"  style="overflow:visible;"/>
			</clipPath>
			<path style="clip-path:url(#SVGID_00000067220400717233573590000003933655945581694356_);" d="M1917.845,64.161
				c2.451,0,24.102,23.694,24.102,23.694l10.621-34.315L1917.845,64.161z"/>
		</g>
		<g>
			<defs>
				<polyline id="SVGID_00000161620508076214712300000002744806824177417860_" points="2174.006,844.79 2174.006,29.029 
					928.787,29.029 928.787,844.79 				"/>
			</defs>
			<clipPath id="SVGID_00000148660744034676665080000015769069902072334756_">
				<use xlink:href="#SVGID_00000161620508076214712300000002744806824177417860_"  style="overflow:visible;"/>
			</clipPath>
			<path style="clip-path:url(#SVGID_00000148660744034676665080000015769069902072334756_);" d="M1931.326,104.195
				c0,2.042-8.17,14.298-8.17,14.298l12.051,6.74L1931.326,104.195z"/>
		</g>
	</g>
	<polygon points="1935.207,104.195 1952.569,104.195 1948.892,114.714 	"/>
	<g>
		<g>
			<defs>
				<polyline id="SVGID_00000168115997345510620670000014650293936772143290_" points="2174.006,844.79 2174.006,29.029 
					928.787,29.029 928.787,844.79 				"/>
			</defs>
			<clipPath id="SVGID_00000138553974683990713200000015789076102542820515_">
				<use xlink:href="#SVGID_00000168115997345510620670000014650293936772143290_"  style="overflow:visible;"/>
			</clipPath>
			<path style="clip-path:url(#SVGID_00000138553974683990713200000015789076102542820515_);" d="M1891.088,58.442
				c0,0-22.264,29.413-24.306,29.413c-2.043,0,15.115-32.681,15.115-32.681L1891.088,58.442z"/>
		</g>
	</g>
	<polygon points="1785.078,118.493 1828.789,92.757 1805.913,121.353 	"/>
	<polygon points="1872.909,104.195 1872.909,131.974 1891.088,114.714 	"/>
	<g>
		<g>
			<defs>
				<polyline id="SVGID_00000149368794716537726020000013131560336441538478_" points="2174.006,844.79 2174.006,29.029 
					928.787,29.029 928.787,844.79 				"/>
			</defs>
			<clipPath id="SVGID_00000125562252554414683550000012498297437745801917_">
				<use xlink:href="#SVGID_00000149368794716537726020000013131560336441538478_"  style="overflow:visible;"/>
			</clipPath>
			<path style="clip-path:url(#SVGID_00000125562252554414683550000012498297437745801917_);" d="M1864.738,139.327
				c0,0,23.694-11.438,22.468-7.353c-1.226,4.085-2.86,15.932-2.86,15.932l-19.609-8.407"/>
		</g>
	</g>
	<polygon points="1864.738,144.229 1856.977,175.276 1884.347,166.289 	"/>
	<polygon points="1839.002,96.025 1820.619,121.353 1849.623,122.986 	"/>
	<polygon points="1818.577,125.234 1785.078,169.557 1849.624,127.889 	"/>
	<polygon points="1854.526,181.914 1852.074,189.983 1866.781,185.949 	"/>
	<polygon points="1787.53,175.276 1805.913,214.902 1849.624,139.499 	"/>
	<polyline points="1836.96,172.825 1852.074,205.098 1817.351,208.366 1835.121,172.825 	"/>
	<polygon class="st10" points="2026.918,166.289 2043.156,199.378 2079.207,199.378 	"/>
	<polygon class="st10" points="2033.045,212.451 2079.207,202.238 2100.45,247.991 	"/>
	<polygon class="st38" points="2043.156,225.115 2111.48,255.004 2054.697,262.698 	"/>
	<g>
		<g>
			<defs>
				<polyline id="SVGID_00000183231173552369087870000004534385642109622705_" points="2174.006,844.79 2174.006,29.029 
					928.787,29.029 928.787,844.79 				"/>
			</defs>
			<clipPath id="SVGID_00000130616884538284025830000017080443569473836163_">
				<use xlink:href="#SVGID_00000183231173552369087870000004534385642109622705_"  style="overflow:visible;"/>
			</clipPath>
			<path style="clip-path:url(#SVGID_00000130616884538284025830000017080443569473836163_);fill:#EE7623;" d="M2051.428,268.417
				c0,0,57.684-8.987,60.052-8.987c2.367,0,55.149,46.162,55.149,46.162L2051.428,268.417z"/>
		</g>
	</g>
	<polygon class="st38" points="2053.063,301.951 2047.139,339.827 2092.28,329.624 	"/>
	<polygon class="st11" points="1912.943,218.578 1923.155,241.66 1946.849,240.229 	"/>
	<polygon class="st38" points="1957.471,118.493 1989.539,131.092 1978.305,114.714 	"/>
	<polygon class="st38" points="1952.569,64.161 1945.011,109.455 1966.254,107.055 	"/>
	<polygon class="st11" points="1923.156,71.514 1926.016,101.744 1941.947,96.025 	"/>
	<polygon class="st11" points="1941.13,114.714 1904.517,125.234 1890.22,159.753 	"/>
	<polygon class="st38" points="1978.305,265.149 1959.934,280.162 1979.939,285.609 	"/>
	<polygon class="st38" points="1870.662,199.378 1828.789,245.132 1892.109,208.366 	"/>
	<polygon class="st10" points="1828.789,208.366 1776.091,255.004 1818.577,253.302 	"/>
	<g>
		<g>
			<defs>
				<polyline id="SVGID_00000137131449129063938640000004618659031615012776_" points="2174.006,844.79 2174.006,29.029 
					928.787,29.029 928.787,844.79 				"/>
			</defs>
			<clipPath id="SVGID_00000102512658246522330680000011932222883894002584_">
				<use xlink:href="#SVGID_00000137131449129063938640000004618659031615012776_"  style="overflow:visible;"/>
			</clipPath>
			<path style="clip-path:url(#SVGID_00000102512658246522330680000011932222883894002584_);fill:#C06B13;" d="M1787.53,265.149
				c-5.719,0-25.94,3.268-25.94,3.268l25.123,6.962L1787.53,265.149z"/>
		</g>
	</g>
	<polygon class="st38" points="1781.81,282.511 1753.214,282.511 1781.81,296.196 	"/>
	<g>
		<g>
			<defs>
				<polyline id="SVGID_00000143579516511900175910000016847001417522783891_" points="2174.006,844.79 2174.006,29.029 
					928.787,29.029 928.787,844.79 				"/>
			</defs>
			<clipPath id="SVGID_00000154415272183928013310000000924486791219082167_">
				<use xlink:href="#SVGID_00000143579516511900175910000016847001417522783891_"  style="overflow:visible;"/>
			</clipPath>
			<path style="clip-path:url(#SVGID_00000154415272183928013310000000924486791219082167_);fill:#C06B13;" d="M1764.653,298.851
				l-23.693,2.633c0,0,20.63,9.418,20.63,11.461C1761.589,314.987,1764.653,298.851,1764.653,298.851"/>
		</g>
		<g>
			<defs>
				<polyline id="SVGID_00000111914036647318445210000000918177283776453554_" points="2174.006,844.79 2174.006,29.029 
					928.787,29.029 928.787,844.79 				"/>
			</defs>
			<clipPath id="SVGID_00000129922576003271294540000009575536302619578284_">
				<use xlink:href="#SVGID_00000111914036647318445210000000918177283776453554_"  style="overflow:visible;"/>
			</clipPath>
			<path style="clip-path:url(#SVGID_00000129922576003271294540000009575536302619578284_);fill:#EE7623;" d="M1809.794,122.987
				l-42.281,2.247l14.297,44.324C1781.81,169.557,1809.794,122.903,1809.794,122.987"/>
		</g>
	</g>
	<polyline class="st38" points="1765.674,131.092 1766.054,132.45 1777.113,171.944 1752.193,168.676 	"/>
	<g>
		<g>
			<defs>
				<polyline id="SVGID_00000002360709069766959120000001744536992320479620_" points="2174.006,844.79 2174.006,29.029 
					928.787,29.029 928.787,844.79 				"/>
			</defs>
			<clipPath id="SVGID_00000121978962589693640700000000354169410237143457_">
				<use xlink:href="#SVGID_00000002360709069766959120000001744536992320479620_"  style="overflow:visible;"/>
			</clipPath>
			<path style="clip-path:url(#SVGID_00000121978962589693640700000000354169410237143457_);fill:#A4541C;" d="M1781.81,172.825
				c0,2.451,20.63,45.753,20.63,45.753l-43.506-22.877L1781.81,172.825z"/>
		</g>
	</g>
	<polygon class="st38" points="1790.798,101.744 1697.657,131.974 1761.589,125.234 	"/>
	<polygon class="st10" points="1753.215,131.092 1697.657,139.499 1748.312,182.834 	"/>
	<polygon class="st10" points="1725.436,178.136 1700.108,199.378 1700.108,249.625 	"/>
	<polygon class="st10" points="1697.657,146.272 1728.704,172.825 1697.657,195.293 	"/>
	<polygon class="st10" points="1732.789,181.791 1793.249,225.115 1700.108,301.484 	"/>
	<polygon class="st7" points="1895.785,70.697 1881.998,101.744 1917.845,92.757 	"/>
	<g>
		<g>
			<defs>
				<polyline id="SVGID_00000093874461880873853540000009702391877605453741_" points="2174.006,844.79 2174.006,29.029 
					928.787,29.029 928.787,844.79 				"/>
			</defs>
			<clipPath id="SVGID_00000157988873691229344380000004183934777255795389_">
				<use xlink:href="#SVGID_00000093874461880873853540000009702391877605453741_"  style="overflow:visible;"/>
			</clipPath>
			<path style="clip-path:url(#SVGID_00000157988873691229344380000004183934777255795389_);fill:#939598;" d="M1861.879,92.757
				c0,0-12.256,8.579-12.256,11.438s12.256,5.311,12.256,5.311V92.757z"/>
		</g>
	</g>
	<polygon class="st7" points="1899.922,101.744 1917.845,96.025 1904.517,116.859 	"/>
	<g>
		<g>
			<defs>
				<polyline id="SVGID_00000015333156920640164010000003251417727414295990_" points="2174.006,844.79 2174.006,29.029 
					928.787,29.029 928.787,844.79 				"/>
			</defs>
			<clipPath id="SVGID_00000107579737300573367550000008137553991575513734_">
				<use xlink:href="#SVGID_00000015333156920640164010000003251417727414295990_"  style="overflow:visible;"/>
			</clipPath>
			<path style="clip-path:url(#SVGID_00000107579737300573367550000008137553991575513734_);fill:#939598;" d="M1809.794,415.328
				c3.064,0,25.328,3.83,25.328,6.69c0,2.86-28.188,34.315-28.188,34.315L1809.794,415.328z"/>
		</g>
		<g>
			<defs>
				<polyline id="SVGID_00000145760381249142079240000005338545728185867961_" points="2174.006,844.79 2174.006,29.029 
					928.787,29.029 928.787,844.79 				"/>
			</defs>
			<clipPath id="SVGID_00000138554075937538607170000010453373744891902879_">
				<use xlink:href="#SVGID_00000145760381249142079240000005338545728185867961_"  style="overflow:visible;"/>
			</clipPath>
			<path style="clip-path:url(#SVGID_00000138554075937538607170000010453373744891902879_);fill:#939598;" d="M2043.156,341.949
				c-0.306,3.268-31.966,13.481-31.966,13.481l12.051,13.685L2043.156,341.949z"/>
		</g>
	</g>
	<polygon class="st7" points="2055.922,359.622 2055.922,369.115 2037.369,370.953 	"/>
	<polygon class="st7" points="1845.13,431.209 1826.747,453.473 1828.789,476.962 	"/>
	<polygon class="st7" points="1872.909,449.796 1866.781,473.49 1881.998,485.746 	"/>
	<polygon class="st7" points="1891.088,456.333 1895.785,481.66 1908.245,485.746 	"/>
	<polyline class="st7" points="1787.53,412.622 1744.227,424.877 1759.343,441.626 1785.078,412.622 	"/>
	<polygon class="st7" points="1753.215,400.775 1732.789,406.698 1746.678,422.018 	"/>
	<polygon class="st7" points="1945.011,400.775 1939.02,427.124 1961.556,422.018 	"/>
	<polygon class="st7" points="2102.493,417.932 2109.029,433.252 2115.565,427.124 	"/>
	<polygon class="st7" points="1887.615,351.345 1872.909,396.009 1903.547,372.614 	"/>
	<polygon class="st7" points="1817.351,291.056 1770.372,298.851 1798.151,312.945 	"/>
	<polygon class="st7" points="1761.589,329.624 1790.797,329.624 1795.699,345.217 	"/>
	<polyline class="st7" points="1736.874,388.519 1764.653,381.473 1732.789,400.775 1736.874,386.069 	"/>
	<polygon class="st5" points="2070.833,396.009 2060.416,402.409 2074.305,416.298 	"/>
	<polygon class="st5" points="2074.305,378.102 2135.173,376.264 2065.726,389.064 	"/>
	<polygon class="st5" points="2109.029,400.775 2103.514,412.622 2117.607,409.507 	"/>
	<polygon class="st7" points="1758.934,353.388 1781.81,351.345 1770.372,359.622 	"/>
	<polyline class="st5" points="1911.309,396.009 1912.526,396.052 1941.948,397.098 1918.484,410.579 	"/>
	<polygon class="st5" points="1870.662,285.609 1892.109,280.162 1884.347,295.787 	"/>
	<polygon class="st5" points="1859.428,305.987 1847.99,312.945 1875.996,308.125 	"/>
	<polygon class="st47" points="1961.556,364.009 1952.568,379.941 1998.424,374.221 	"/>
	<polyline class="st47" points="1859.223,178.136 1884.347,169.557 1872.909,189.982 1859.428,179.77 	"/>
	<polygon class="st5" points="1852.074,190.595 1854.934,202.238 1870.662,195.293 	"/>
	<polygon class="st3" points="1950.288,29.029 1940.16,53.539 1955.632,53.539 	"/>
	<polygon class="st5" points="1955.224,55.174 1950.288,70.697 1963.803,79.684 	"/>
	<g>
		<g>
			<defs>
				<polyline id="SVGID_00000122681228058817294930000016095419548368726957_" points="2174.006,844.79 2174.006,29.029 
					928.787,29.029 928.787,844.79 				"/>
			</defs>
			<clipPath id="SVGID_00000021802606872798818640000014393570992996968848_">
				<use xlink:href="#SVGID_00000122681228058817294930000016095419548368726957_"  style="overflow:visible;"/>
			</clipPath>
			<path style="clip-path:url(#SVGID_00000021802606872798818640000014393570992996968848_);fill:#C06B13;" d="M1904.517,150.766
				c0,0,8.426,7.353,8.426,11.438c0,4.085-21.855,19.588-21.855,19.588L1904.517,150.766z"/>
		</g>
	</g>
	<polygon class="st49" points="2028.96,460.009 2039.173,460.009 2033.045,471.039 	"/>
	<polygon class="st49" points="2047.139,464.775 2060.415,456.434 2053.062,470.835 	"/>
	<polygon class="st49" points="2065.726,460.009 2074.305,460.009 2070.833,470.835 	"/>
	<g>
		<g>
			<defs>
				<polyline id="SVGID_00000119096730322886437530000014748436811944440758_" points="2174.006,844.79 2174.006,29.029 
					928.787,29.029 928.787,844.79 				"/>
			</defs>
			<clipPath id="SVGID_00000080902069158564791460000004588354087777246081_">
				<use xlink:href="#SVGID_00000119096730322886437530000014748436811944440758_"  style="overflow:visible;"/>
			</clipPath>
			<path style="clip-path:url(#SVGID_00000080902069158564791460000004588354087777246081_);fill:#863A20;" d="M2085.743,456.434"/>
		</g>
	</g>
	<polygon class="st49" points="2085.743,434.835 2089.011,463.635 2095.548,463.635 	"/>
	<g>
		<g>
			<defs>
				<polyline id="SVGID_00000037657911968058092860000007265776137628388268_" points="2174.006,844.79 2174.006,29.029 
					928.787,29.029 928.787,844.79 				"/>
			</defs>
			<clipPath id="SVGID_00000135667715638164318170000006475123159327134606_">
				<use xlink:href="#SVGID_00000037657911968058092860000007265776137628388268_"  style="overflow:visible;"/>
			</clipPath>
			<path style="clip-path:url(#SVGID_00000135667715638164318170000006475123159327134606_);fill:#A7A9AC;" d="M2097.386,453.473
				c3.063,0,11.642-3.676,11.642-3.676l-5.821,10.213L2097.386,453.473z"/>
		</g>
	</g>
	<polygon class="st49" points="2124.96,391.124 2117.607,398.732 2130.68,398.732 	"/>
	<polygon class="st49" points="2151.105,370.749 2135.173,381.473 2148.486,389.064 	"/>
	<polygon class="st49" points="2069.709,365.288 2138.85,351.345 2141.464,358.316 	"/>
	<polygon class="st49" points="2148.486,353.388 2145.386,366.868 2161.726,361.966 	"/>
	<g>
		<g>
			<defs>
				<polyline id="SVGID_00000137819909908143519830000003130395312671094658_" points="2174.006,844.79 2174.006,29.029 
					928.787,29.029 928.787,844.79 				"/>
			</defs>
			<clipPath id="SVGID_00000034062792591411166540000001662581069508529058_">
				<use xlink:href="#SVGID_00000137819909908143519830000003130395312671094658_"  style="overflow:visible;"/>
			</clipPath>
			<path style="clip-path:url(#SVGID_00000034062792591411166540000001662581069508529058_);fill:#4D4D4F;" d="M2002.203,369.115
				c2.349,0,10.332-3.828,10.332-3.828l6.398,12.815L2002.203,369.115z"/>
		</g>
	</g>
	<polygon class="st47" points="1874.389,223.378 1864.738,239.004 1876.177,253.302 	"/>
	<polygon class="st5" points="1874.389,255.004 1854.117,262.034 1866.781,271.685 	"/>
	<polygon class="st5" points="1860.449,273.319 1846.764,275.379 1864.253,282.511 	"/>
	<polygon class="st5" points="1859.223,291.056 1845.13,302 1845.13,287.975 	"/>
	<polygon class="st5" points="1881.385,314.987 1871.786,324.224 1879.445,345.217 	"/>
	<polygon class="st5" points="1835.121,314.987 1826.746,320.059 1849.624,337.421 	"/>
	<polygon class="st5" points="1818.577,369.115 1805.913,373.677 1834.1,388.519 	"/>
	<polygon class="st5" points="1834.1,394.928 1826.747,412.622 1842.27,416.298 	"/>
	<polygon class="st7" points="1786.712,441.626 1774.559,454.903 1790.798,467.771 	"/>
	<polygon points="1740.959,402.409 1712.772,397.099 1770.372,499.635 	"/>
	<polygon class="st3" points="1696.023,406.698 1720.534,391.124 1713.18,435.831 	"/>
	<polygon class="st5" points="1720.534,420.281 1751.172,476.962 1720.534,454.903 	"/>
	<polygon class="st4" points="1700.108,341.949 1772.006,305.592 1758.015,350.324 	"/>
	<polygon class="st7" points="1908.245,59.259 1918.484,71.514 1933.981,53.539 	"/>
	<polygon class="st5" points="1937.85,405.613 1921.113,416.298 1937.85,425.592 	"/>
	<g>
		<g>
			<defs>
				<polyline id="SVGID_00000033340260451925268460000001552675246382618554_" points="2174.006,844.79 2174.006,29.029 
					928.787,29.029 928.787,844.79 				"/>
			</defs>
			<clipPath id="SVGID_00000178202706314071915240000018085356973915675541_">
				<use xlink:href="#SVGID_00000033340260451925268460000001552675246382618554_"  style="overflow:visible;"/>
			</clipPath>
			<path style="clip-path:url(#SVGID_00000178202706314071915240000018085356973915675541_);fill:#C7C8CA;" d="M1700.108,347.629
				c0.49,0,2.55,0.428,5.53,1.112c11.922,2.736,38.589,9.576,38.589,9.576l-15.524,36.612"/>
		</g>
	</g>
	<polygon class="st54" points="1697.657,416.298 1765.879,504.537 1713.18,504.537 	"/>
	<polygon class="st7" points="1795.7,460.418 1805.913,449.796 1821.028,470.835 	"/>
	<polygon class="st7" points="2003.66,451.272 2020.327,457.808 2003.66,462.71 	"/>
	<polygon class="st7" points="1966.401,431.663 1994.18,451.272 1972.393,444.736 	"/>
	<polygon points="1953.079,282.511 1956.467,310.698 1967.173,306.613 	"/>
	<polygon points="1697.308,463.121 1695.694,503.518 1711.026,503.518 	"/>
	<polyline points="1674.848,255.183 1697.039,200.244 1722.861,203.069 1674.848,259.554 	"/>
	<polygon points="1649.631,191.57 1609.284,228.689 1624.414,289.108 	"/>
	<g>
		<g>
			<defs>
				<polyline id="SVGID_00000075848752330836854480000007666149391369435279_" points="2174.006,844.79 2174.006,29.029 
					928.787,29.029 928.787,844.79 				"/>
			</defs>
			<clipPath id="SVGID_00000067924509676637487280000017966604396357026214_">
				<use xlink:href="#SVGID_00000075848752330836854480000007666149391369435279_"  style="overflow:visible;"/>
			</clipPath>
			<path style="clip-path:url(#SVGID_00000067924509676637487280000017966604396357026214_);" d="M1609.284,246.593
				c0,0,9.078,40.315,8.069,44.197s-42.364,19.198-42.364,19.198L1609.284,246.593z"/>
		</g>
	</g>
	<polygon points="1568.938,305.146 1578.016,328.882 1548.764,347.914 	"/>
	<polygon points="1548.764,352.352 1563.39,344.283 1574.99,393.38 	"/>
	<polygon points="1582.05,397.137 1633.492,412.166 1617.432,422.959 	"/>
	<polygon points="1629.458,425.178 1640.553,418.117 1674.848,451.202 	"/>
	<polygon points="1659.718,451.202 1683.926,458.061 1697.039,491.145 	"/>
	<polygon points="1704.705,505.67 1726.089,505.67 1732.342,548.841 	"/>
	<g>
		<g>
			<defs>
				<polyline id="SVGID_00000111173557587095077920000011550002298493390990_" points="2174.006,844.79 2174.006,29.029 
					928.787,29.029 928.787,844.79 				"/>
			</defs>
			<clipPath id="SVGID_00000036930473272896312690000006944806228678562996_">
				<use xlink:href="#SVGID_00000111173557587095077920000011550002298493390990_"  style="overflow:visible;"/>
			</clipPath>
			<path style="clip-path:url(#SVGID_00000036930473272896312690000006944806228678562996_);" d="M1488.244,282.35
				c-7.405,0-15.13,58.705-15.13,58.705l35.303-13.314C1508.417,327.74,1490.765,282.35,1488.244,282.35"/>
		</g>
	</g>
	<polygon points="1480.174,344.283 1503.374,338.959 1503.374,371.342 	"/>
	<polyline points="1491.774,371.341 1508.417,382.208 1514.469,407.778 1490.765,374.946 	"/>
	<polygon class="st57" points="1449.914,312.585 1438.819,365.666 1462.018,362.842 	"/>
	<polygon class="st2" points="1442.854,372.929 1462.018,371.342 1473.114,405.005 	"/>
	<polygon points="1473.114,357.22 1480.174,388.173 1490.765,382.208 	"/>
	<polygon points="1481.939,397.137 1491.774,392.295 1527.582,429.213 	"/>
	<polygon class="st5" points="1761.796,451.824 1871.741,489.447 1853.988,533.627 	"/>
	<polyline class="st49" points="1733.351,512.041 1772.084,512.041 1772.084,580.631 1732.342,512.041 	"/>
	<polygon points="1774.606,503.165 1774.606,518.093 1793.67,533.627 	"/>
	<polygon class="st58" points="1780.658,503.165 1856.006,533.627 1853.181,566.51 	"/>
	<polygon class="st7" points="1793.064,524.146 1845.919,580.631 1828.166,608.874 	"/>
	<polygon class="st59" points="1777.127,524.146 1820.5,620.978 1798.814,659.308 	"/>
	<polygon class="st38" points="1690.987,126.006 1698.854,140.127 1649.631,159.292 	"/>
	<polygon class="st60" points="1629.855,178.086 1688.969,149.205 1688.969,195.604 	"/>
	<polygon class="st10" points="1473.114,289.108 1457.984,309.987 1462.018,344.282 	"/>
	<g>
		<g>
			<defs>
				<polyline id="SVGID_00000080902287842267999840000012963292098800878465_" points="2174.006,844.79 2174.006,29.029 
					928.787,29.029 928.787,844.79 				"/>
			</defs>
			<clipPath id="SVGID_00000181803550770198120130000002108568102803502514_">
				<use xlink:href="#SVGID_00000080902287842267999840000012963292098800878465_"  style="overflow:visible;"/>
			</clipPath>
			<path style="clip-path:url(#SVGID_00000181803550770198120130000002108568102803502514_);fill:#C06B13;" d="M1655.683,195.604
				c-3.53,0-30.26,93.504-26.225,93.504s59.512-88.864,59.512-88.864L1655.683,195.604z"/>
		</g>
	</g>
	<polygon class="st38" points="1688.969,344.282 1712.371,388.172 1674.848,411.396 	"/>
	<polygon class="st10" points="1674.243,285.608 1678.378,347.913 1596.211,324.224 	"/>
	<polygon class="st6" points="1588.607,324.926 1578.016,383.617 1674.848,359.622 	"/>
	<polygon class="st60" points="1678.378,365.287 1591.792,386.068 1670.708,424.877 	"/>
	<polygon class="st6" points="1688.969,411.396 1670.708,431.663 1693.609,449.796 	"/>
	<polygon class="st62" points="1502.617,295.787 1609.284,310.698 1518.504,407.778 	"/>
	<polygon class="st10" points="1580.768,403.559 1610.894,466.831 1642.102,436.694 	"/>
	<polygon class="st10" points="1555.304,372.732 1533.022,418.46 1576.407,418.46 	"/>
	<polygon points="1767.034,466.831 1823.52,515.292 1771.876,497.539 	"/>
	<polygon class="st58" points="1432.962,372.731 1456.21,403.559 1432.962,395.56 	"/>
	<polygon class="st10" points="1626.432,182.833 1561.877,199.378 1576.407,221.642 	"/>
	<polygon class="st38" points="1554.714,203.736 1570.45,226.73 1502.617,275.379 	"/>
	<polygon points="1730.061,546.336 1754.269,553.195 1767.381,586.28 	"/>
	<polygon points="1764.223,563.872 1782.678,580.974 1779.342,616.405 	"/>
	<g>
		<g>
			<defs>
				<polyline id="SVGID_00000001634538276298316970000004069209569471293624_" points="2174.006,844.79 2174.006,29.029 
					928.787,29.029 928.787,844.79 				"/>
			</defs>
			<clipPath id="SVGID_00000177460784083380050590000016271732030772156805_">
				<use xlink:href="#SVGID_00000001634538276298316970000004069209569471293624_"  style="overflow:visible;"/>
			</clipPath>
			<path style="clip-path:url(#SVGID_00000177460784083380050590000016271732030772156805_);" d="M1993.817,254.426
				c0,0,29.02-51.027,32.033-41.163c3.014,9.865,15.304,36.254,15.304,36.254l-47.114,5.264"/>
		</g>
		<g>
			<defs>
				<polyline id="SVGID_00000179614231600701569030000015883386866932027299_" points="2174.006,844.79 2174.006,29.029 
					928.787,29.029 928.787,844.79 				"/>
			</defs>
			<clipPath id="SVGID_00000152961633885462340960000016630381101177779358_">
				<use xlink:href="#SVGID_00000179614231600701569030000015883386866932027299_"  style="overflow:visible;"/>
			</clipPath>
			<path style="clip-path:url(#SVGID_00000152961633885462340960000016630381101177779358_);fill:#E0A473;" d="M1321.409,356.31
				c0.549,6.27,50.83,8.463,50.83,8.463l-13.89-28.907C1358.35,335.865,1321.222,354.174,1321.409,356.31"/>
		</g>
	</g>
	<polygon class="st57" points="1374.449,358.554 1368.223,339.304 1395.643,336.905 	"/>
	<polyline class="st57" points="1396.503,346.728 1404.472,331.83 1425.675,324.811 1396.853,346.998 	"/>
	<polygon class="st38" points="1349.851,386.526 1395.62,391.989 1391.51,372.553 	"/>
	<polygon class="st10" points="1401.471,388.034 1398.707,371.924 1426.39,360.035 	"/>
	<polygon class="st38" points="1385.928,363.575 1411.615,355.303 1405.78,346.777 	"/>
	<polygon class="st57" points="1419.074,353.144 1414.246,345.175 1442.853,312.119 	"/>
	<polygon class="st10" points="1328.253,368.62 1347.053,379.885 1375.794,373.928 	"/>
	<polygon class="st58" points="1402.037,396.424 1426.419,374.455 1421.367,394.733 	"/>
	<g>
		<g>
			<defs>
				<polyline id="SVGID_00000119839359368973248600000015425460946855364776_" points="2174.006,844.79 2174.006,29.029 
					928.787,29.029 928.787,844.79 				"/>
			</defs>
			<clipPath id="SVGID_00000094586025256062522190000007129910587992380034_">
				<use xlink:href="#SVGID_00000119839359368973248600000015425460946855364776_"  style="overflow:visible;"/>
			</clipPath>
			<path style="clip-path:url(#SVGID_00000094586025256062522190000007129910587992380034_);" d="M1628.957,444.716
				c0.549,6.27,50.83,8.463,50.83,8.463l-13.89-28.907C1665.897,424.271,1628.77,442.581,1628.957,444.716"/>
		</g>
	</g>
	<polygon points="1681.997,446.961 1675.771,427.711 1703.191,425.312 	"/>
	<polyline points="1704.05,435.134 1712.019,420.236 1733.223,413.217 1707.177,435.721 	"/>
	<polygon class="st57" points="1657.399,474.932 1703.168,480.395 1699.058,460.96 	"/>
	<polygon points="1709.019,476.441 1706.255,460.33 1733.938,448.441 	"/>
	<polygon points="1693.475,451.981 1719.162,443.709 1713.327,435.183 	"/>
	<polygon points="1726.622,441.55 1721.793,433.582 1750.401,400.526 	"/>
	<polygon class="st10" points="1635.8,457.027 1654.601,468.292 1683.342,462.335 	"/>
	<polygon class="st58" points="1709.585,484.831 1733.967,462.862 1728.915,483.14 	"/>
	<g>
		<g>
			<defs>
				<polyline id="SVGID_00000072985677391830646270000007532233389758549164_" points="2174.006,844.79 2174.006,29.029 
					928.787,29.029 928.787,844.79 				"/>
			</defs>
			<clipPath id="SVGID_00000091719213628294797270000007542833149069021339_">
				<use xlink:href="#SVGID_00000072985677391830646270000007532233389758549164_"  style="overflow:visible;"/>
			</clipPath>
			<path style="clip-path:url(#SVGID_00000091719213628294797270000007542833149069021339_);fill:#808285;" d="M1352.047,402.746
				c-2.694,4.701-44.842-10.631-44.842-10.631l21.766-17.826C1328.971,374.289,1352.965,401.145,1352.047,402.746"/>
		</g>
	</g>
	<polygon class="st10" points="1307.611,386.519 1319.619,373.623 1297.919,362.46 	"/>
	<polygon class="st38" points="1317.841,416.66 1278.235,405.405 1288.568,391.648 	"/>
	<polygon class="st10" points="1274.837,400.34 1282.873,388.718 1264.352,370.068 	"/>
	<polygon class="st58" points="1296.372,386.542 1278.2,371.387 1286.05,366.719 	"/>
	<polygon class="st10" points="1342.014,410.023 1322.518,412.432 1301.005,398.047 	"/>
	<polygon class="st67" points="1271.369,406.688 1259.17,381.299 1256.072,398.818 	"/>
	<g>
		<g>
			<defs>
				<polyline id="SVGID_00000168090255932755974430000008032884918735306124_" points="2174.006,844.79 2174.006,29.029 
					928.787,29.029 928.787,844.79 				"/>
			</defs>
			<clipPath id="SVGID_00000018927867824668316830000000147651392262304640_">
				<use xlink:href="#SVGID_00000168090255932755974430000008032884918735306124_"  style="overflow:visible;"/>
			</clipPath>
			<path style="clip-path:url(#SVGID_00000018927867824668316830000000147651392262304640_);fill:#E0A473;" d="M1183.715,363.62
				c2.29-3.996,38.116,9.037,38.116,9.037l-18.501,15.152C1203.33,387.809,1182.935,364.981,1183.715,363.62"/>
		</g>
	</g>
	<polygon class="st58" points="1221.486,377.413 1211.279,388.374 1229.724,397.863 	"/>
	<polygon class="st67" points="1212.79,351.793 1246.456,361.36 1237.673,373.053 	"/>
	<polygon class="st3" points="1249.344,365.665 1242.513,375.543 1258.256,391.396 	"/>
	<polygon class="st10" points="1231.039,377.394 1246.485,390.275 1239.813,394.243 	"/>
	<polygon class="st10" points="1192.244,357.434 1208.815,355.387 1227.101,367.614 	"/>
	<polygon class="st58" points="1252.292,360.269 1262.661,381.85 1265.294,366.958 	"/>
	<g>
		<g>
			<defs>
				<polyline id="SVGID_00000176746099440185514150000018181766668695107201_" points="2174.006,844.79 2174.006,29.029 
					928.787,29.029 928.787,844.79 				"/>
			</defs>
			<clipPath id="SVGID_00000047754242974396376920000012709088287780393859_">
				<use xlink:href="#SVGID_00000176746099440185514150000018181766668695107201_"  style="overflow:visible;"/>
			</clipPath>
			<path style="clip-path:url(#SVGID_00000047754242974396376920000012709088287780393859_);fill:#808285;" d="M1126.864,412.631
				c-0.625-3.865,30.013-14.42,30.013-14.42l-4.117,19.906C1152.76,418.117,1127.077,413.947,1126.864,412.631"/>
		</g>
	</g>
	<polygon class="st10" points="1159.193,401.538 1158.314,414.238 1175.574,410.64 	"/>
	<polygon class="st38" points="1139.744,389.266 1167.1,377.577 1167.553,389.999 	"/>
	<polygon class="st10" points="1171.312,378.876 1172.083,389.055 1190.963,391.106 	"/>
	<polygon class="st67" points="1165.493,396.415 1182.587,396.661 1180.302,402.852 	"/>
	<polygon class="st10" points="1129.19,403.983 1139.041,393.766 1157.661,392.062 	"/>
	<polygon class="st58" points="1170.372,373.735 1188.765,382.444 1182.539,371.199 	"/>
	<g>
		<g>
			<defs>
				<polyline id="SVGID_00000047037071555246409520000007433448509579474340_" points="2174.006,844.79 2174.006,29.029 
					928.787,29.029 928.787,844.79 				"/>
			</defs>
			<clipPath id="SVGID_00000116930785816661337500000000439723845373681816_">
				<use xlink:href="#SVGID_00000047037071555246409520000007433448509579474340_"  style="overflow:visible;"/>
			</clipPath>
			<path style="clip-path:url(#SVGID_00000116930785816661337500000000439723845373681816_);fill:#FDAD7B;" d="M1123.525,438.555
				c2.428-1.789,18.131,12.606,18.131,12.606l-14.564,4.842C1127.092,456.004,1122.698,439.165,1123.525,438.555"/>
		</g>
	</g>
	<polygon class="st58" points="1120.692,418.117 1119.813,430.817 1137.073,427.219 	"/>
	<polygon class="st67" points="1077.611,436.198 1104.967,424.509 1105.42,436.932 	"/>
	<polygon class="st57" points="1105.42,399.358 1110.576,408.169 1128.443,401.736 	"/>
	<polygon class="st58" points="1150.362,424.284 1167.456,424.53 1165.171,430.72 	"/>
	<polygon class="st10" points="1153.664,353.04 1166.997,348.176 1184.48,354.806 	"/>
	<polygon class="st58" points="1127.097,381.499 1145.203,372.208 1132.492,370.302 	"/>
	<g>
		<g>
			<defs>
				<polyline id="SVGID_00000080919892366740557680000008139703476212885425_" points="2174.006,844.79 2174.006,29.029 
					928.787,29.029 928.787,844.79 				"/>
			</defs>
			<clipPath id="SVGID_00000003090916130022277900000014141451427711079341_">
				<use xlink:href="#SVGID_00000080919892366740557680000008139703476212885425_"  style="overflow:visible;"/>
			</clipPath>
			<path style="clip-path:url(#SVGID_00000003090916130022277900000014141451427711079341_);fill:#E0A473;" d="M1128.458,341.076
				c-0.559-3.272,15.209-10.329,15.209-10.329l-1.045,16.425C1142.622,347.172,1128.648,342.19,1128.458,341.076"/>
		</g>
	</g>
	<polygon class="st67" points="1092.222,456.004 1091.343,468.704 1108.603,465.106 	"/>
	<polygon class="st58" points="1178.458,440.137 1194.142,430.612 1195.326,442.898 	"/>
	<polygon class="st38" points="1182.537,324.926 1183.309,335.106 1202.188,337.157 	"/>
	<polygon class="st58" points="1096.873,355.15 1113.967,355.396 1111.682,361.587 	"/>
	<polygon class="st10" points="1099.973,398.058 1088.484,389.724 1084.205,371.523 	"/>
	<polygon class="st58" points="1202.188,396.424 1183.693,404.917 1196.31,407.376 	"/>
	<g>
		<g>
			<defs>
				<polyline id="SVGID_00000152251114280477215440000008646420815401398432_" points="2174.006,844.79 2174.006,29.029 
					928.787,29.029 928.787,844.79 				"/>
			</defs>
			<clipPath id="SVGID_00000038400826291427759200000012881842274081814410_">
				<use xlink:href="#SVGID_00000152251114280477215440000008646420815401398432_"  style="overflow:visible;"/>
			</clipPath>
			<path style="clip-path:url(#SVGID_00000038400826291427759200000012881842274081814410_);fill:#EE7623;" d="M1047.898,362.833
				c-0.497-2.866,10.671-8.561,10.671-8.561l-0.281,14.281C1058.288,368.552,1048.067,363.809,1047.898,362.833"/>
		</g>
	</g>
	<polygon class="st10" points="1111.771,322.117 1106.361,329.731 1123.421,334.172 	"/>
	<polygon class="st67" points="1075.522,415.435 1050.059,430.818 1047.882,418.579 	"/>
	<polygon class="st38" points="1064.323,450.896 1072.237,457.343 1086.721,445.06 	"/>
	<polygon class="st10" points="1072.804,324.926 1089.899,325.173 1087.614,331.363 	"/>
	<polygon class="st10" points="1044.333,404.019 1054.184,393.802 1072.804,392.097 	"/>
	<polygon class="st58" points="1218.236,337.968 1236.629,346.677 1230.403,335.432 	"/>
	<polygon class="st10" points="1184.48,410.216 1184.243,424.407 1171.788,438.352 	"/>
	<polygon class="st10" points="1114.949,430.992 1114.711,445.183 1102.256,459.129 	"/>
	<polygon class="st58" points="1035.136,327.955 1053.53,336.664 1047.304,325.419 	"/>
	<polygon class="st58" points="1004.956,418.673 1023.934,411.325 1011.492,408.101 	"/>
	<polygon class="st58" points="1142.988,488.257 1144.349,467.952 1136.169,477.866 	"/>
	<polygon class="st58" points="1044.333,447.651 1028.554,460.504 1041.384,459.726 	"/>
	<polygon class="st38" points="1004.956,362.46 989.836,354.48 994.683,350.002 	"/>
	<g>
		<g>
			<defs>
				<polyline id="SVGID_00000011750571424326083390000004041593987147371656_" points="2174.006,844.79 2174.006,29.029 
					928.787,29.029 928.787,844.79 				"/>
			</defs>
			<clipPath id="SVGID_00000090985050418641719440000017730470932664420528_">
				<use xlink:href="#SVGID_00000011750571424326083390000004041593987147371656_"  style="overflow:visible;"/>
			</clipPath>
			<path style="clip-path:url(#SVGID_00000090985050418641719440000017730470932664420528_);fill:#414042;" d="M1295.509,432.496
				c-0.559-3.272,15.209-10.329,15.209-10.329l-1.045,16.425C1309.674,438.592,1295.699,433.61,1295.509,432.496"/>
		</g>
	</g>
	<polygon class="st10" points="1263.925,446.571 1281.019,446.817 1278.734,453.007 	"/>
	<g>
		<g>
			<defs>
				<polyline id="SVGID_00000080908132997836634010000006857066690716356503_" points="2174.006,844.79 2174.006,29.029 
					928.787,29.029 928.787,844.79 				"/>
			</defs>
			<clipPath id="SVGID_00000152962664639283902340000001288514777296355006_">
				<use xlink:href="#SVGID_00000080908132997836634010000006857066690716356503_"  style="overflow:visible;"/>
			</clipPath>
			<path style="clip-path:url(#SVGID_00000152962664639283902340000001288514777296355006_);fill:#EE7623;" d="M1214.95,454.253
				c-0.497-2.866,10.671-8.561,10.671-8.561l-0.281,14.28C1225.34,459.972,1215.119,455.229,1214.95,454.253"/>
		</g>
	</g>
	<polygon class="st10" points="1278.823,413.538 1273.413,421.152 1290.473,425.593 	"/>
	<polygon class="st57" points="1239.856,416.347 1256.95,416.593 1254.665,422.783 	"/>
	<polygon class="st67" points="1202.188,419.376 1220.582,428.084 1214.356,416.839 	"/>
	<polygon class="st10" points="1057.33,498.849 1040.269,499.945 1042.061,493.594 	"/>
	<g>
		<g>
			<defs>
				<polyline id="SVGID_00000049197675597871493770000000932736792021885097_" points="2174.006,844.79 2174.006,29.029 
					928.787,29.029 928.787,844.79 				"/>
			</defs>
			<clipPath id="SVGID_00000008108809288845563320000001232074208122338456_">
				<use xlink:href="#SVGID_00000049197675597871493770000000932736792021885097_"  style="overflow:visible;"/>
			</clipPath>
			<path style="clip-path:url(#SVGID_00000008108809288845563320000001232074208122338456_);fill:#FDAD7B;" d="M1105.551,487.348
				c0.72,2.818-9.966,9.372-9.966,9.372l-0.84-14.258C1094.744,482.461,1105.306,486.388,1105.551,487.348"/>
		</g>
	</g>
	<polygon class="st58" points="1045.068,532.949 1049.865,524.934 1032.509,521.845 	"/>
	<polygon class="st38" points="1083.695,527.091 1066.635,528.187 1068.426,521.836 	"/>
	<polygon class="st58" points="1249.366,436.452 1230.346,429.213 1237.436,439.935 	"/>
	<polygon class="st38" points="983.888,388.872 966.828,389.968 968.62,383.617 	"/>
	<polygon class="st10" points="1287.94,346.992 1270.879,348.088 1272.671,341.737 	"/>
	<polygon class="st58" points="992.388,452.851 997.185,444.836 979.829,441.747 	"/>
	<polygon class="st0" points="980.315,301.886 993.094,300.841 991.833,305.627 	"/>
	<polygon class="st76" points="1000.455,322.719 1013.235,321.674 1011.974,326.46 	"/>
	<polygon class="st76" points="1009.203,296.988 1005.712,303.061 1018.767,305.15 	"/>
	<polygon class="st0" points="928.787,423.329 940.713,421.225 939.58,416.407 	"/>
	<polygon class="st76" points="956.351,432.268 967.144,425.346 968.277,430.163 	"/>
	<polygon class="st76" points="951.995,405.441 951.763,412.443 964.271,408.159 	"/>
	<polygon class="st0" points="962.531,490.248 975.311,489.203 974.05,493.988 	"/>
	<polygon class="st76" points="982.672,511.081 995.451,510.036 994.191,514.822 	"/>
	<polygon class="st76" points="991.42,485.349 987.929,491.423 1000.984,493.511 	"/>
	<polygon class="st76" points="981.66,303.369 994.439,302.324 993.178,307.11 	"/>
	<polygon class="st76" points="930.132,424.812 940.924,417.89 942.058,422.708 	"/>
	<polygon class="st76" points="963.876,491.731 976.656,490.686 975.395,495.472 	"/>
</g>
<g id="Layer_2">
	<line class="st77" x1="-1213.165" y1="1148.354" x2="2527.753" y2="1148.354"/>
	<line class="st77" x1="-1213.165" y1="1148.354" x2="2527.753" y2="1148.354"/>
	<line class="st77" x1="-1213.165" y1="1148.354" x2="2527.753" y2="1148.354"/>
	<line class="st77" x1="-1213.165" y1="1148.354" x2="2527.753" y2="1148.354"/>
	<line class="st77" x1="-1213.165" y1="1148.354" x2="2527.753" y2="1148.354"/>
	<line class="st77" x1="-1213.165" y1="1148.354" x2="2527.753" y2="1148.354"/>
	<line class="st77" x1="-1213.165" y1="1148.354" x2="2527.753" y2="1148.354"/>
	<line class="st77" x1="-1213.165" y1="1148.354" x2="2527.753" y2="1148.354"/>
	<line class="st77" x1="-1213.165" y1="1148.354" x2="2527.753" y2="1148.354"/>
	<line class="st77" x1="-1213.165" y1="1148.354" x2="2527.753" y2="1148.354"/>
	<line class="st77" x1="-1213.165" y1="1148.354" x2="2527.753" y2="1148.354"/>
	<line class="st77" x1="-1213.165" y1="1148.354" x2="2527.753" y2="1148.354"/>
	<line class="st77" x1="-1213.165" y1="1148.354" x2="2527.753" y2="1148.354"/>
	<line class="st77" x1="-1213.165" y1="1148.354" x2="2527.753" y2="1148.354"/>
	<line class="st77" x1="-1213.165" y1="1148.354" x2="2527.753" y2="1148.354"/>
	<line class="st77" x1="-1213.165" y1="1148.354" x2="2527.753" y2="1148.354"/>
	<line class="st77" x1="-1213.165" y1="1148.354" x2="2527.753" y2="1148.354"/>
	<line class="st77" x1="-1213.165" y1="1148.354" x2="2527.753" y2="1148.354"/>
	<line class="st77" x1="-1213.165" y1="1148.354" x2="2527.753" y2="1148.354"/>
	<line class="st77" x1="-1213.165" y1="1148.354" x2="2527.753" y2="1148.354"/>
	<line class="st77" x1="-1213.165" y1="1148.354" x2="2527.753" y2="1148.354"/>
	<line class="st77" x1="-1213.165" y1="1148.354" x2="2527.753" y2="1148.354"/>
	<line class="st77" x1="-1213.165" y1="1148.354" x2="2527.753" y2="1148.354"/>
	<line class="st77" x1="-1213.165" y1="1148.354" x2="2527.753" y2="1148.354"/>
	<line class="st77" x1="-1213.165" y1="1148.354" x2="2527.753" y2="1148.354"/>
	<line class="st77" x1="-1213.165" y1="1148.354" x2="2527.753" y2="1148.354"/>
	<line class="st77" x1="-1213.165" y1="1148.354" x2="2527.753" y2="1148.354"/>
	<line class="st77" x1="-1213.165" y1="1148.354" x2="2527.753" y2="1148.354"/>
	<line class="st77" x1="-1213.165" y1="1148.354" x2="2527.753" y2="1148.354"/>
	<line class="st77" x1="-1213.165" y1="1148.354" x2="2527.753" y2="1148.354"/>
	<line class="st77" x1="-1213.165" y1="1148.354" x2="2527.753" y2="1148.354"/>
	<line class="st77" x1="-1213.165" y1="1148.354" x2="2527.753" y2="1148.354"/>
	<line class="st77" x1="-1213.165" y1="1148.354" x2="2527.753" y2="1148.354"/>
	<line class="st77" x1="-1213.165" y1="1148.354" x2="2527.753" y2="1148.354"/>
	<path d="M1346.72,635.206"/>
	<path class="st7" d="M1318.851,901.281"/>
	<line class="st77" x1="-1213.165" y1="1148.354" x2="2527.753" y2="1148.354"/>
	<line class="st77" x1="-1213.165" y1="1148.354" x2="2527.753" y2="1148.354"/>
	<line class="st77" x1="-1213.165" y1="1148.354" x2="2527.753" y2="1148.354"/>
	<line class="st77" x1="-1213.165" y1="1148.354" x2="2527.753" y2="1148.354"/>
	<line class="st77" x1="-1213.165" y1="1148.354" x2="2527.753" y2="1148.354"/>
	<line class="st77" x1="-1213.165" y1="1148.354" x2="2527.753" y2="1148.354"/>
	<line class="st77" x1="-1213.165" y1="1148.354" x2="2527.753" y2="1148.354"/>
	<line class="st77" x1="-1213.165" y1="1148.354" x2="2527.753" y2="1148.354"/>
	<line class="st77" x1="-1213.165" y1="1148.354" x2="2527.753" y2="1148.354"/>
	<line class="st77" x1="-1213.165" y1="1148.354" x2="2527.753" y2="1148.354"/>
	<line class="st77" x1="-1213.165" y1="1148.354" x2="2527.753" y2="1148.354"/>
	<line class="st77" x1="-1213.165" y1="1148.354" x2="2527.753" y2="1148.354"/>
	<path class="st0" d="M1509.745,584.78c5.673,14.497,11.976,30.471,18.909,47.903c6.933,17.44,14.074,35.611,21.429,54.52
		c7.348,18.908,14.596,37.817,21.745,56.726h-156.942c10.085-24.789,19.43-47.795,28.048-69.018
		c8.608-21.214,16.486-40.231,23.637-57.041c7.14-16.801,13.127-31.091,17.963-42.861c4.826-11.758,8.51-20.375,11.031-25.842
		C1499.345,558.416,1504.072,570.284,1509.745,584.78 M1762.178,931.126v-7.563c-9.671-0.414-18.072-2.304-25.212-5.673
		c-7.151-3.359-13.138-7.249-17.964-11.661c-4.836-4.412-8.725-8.716-11.66-12.921c-2.945-4.195-4.836-7.14-5.673-8.824
		c-5.042-10.922-9.562-20.691-13.551-29.308c-3.999-8.608-8.302-19.431-12.92-32.46c-10.085-26.472-20.169-53.26-30.254-80.362
		c-10.085-27.102-20.485-55.15-31.2-84.143c-10.715-28.994-21.962-59.14-33.721-90.448c-11.768-31.298-24.168-64.388-37.187-99.271
		h-5.042c-1.685,2.944-4.097,6.726-7.249,11.345c-3.151,4.629-7.041,9.455-11.661,14.497c-4.629,5.043-9.987,9.878-16.072,14.497
		c-6.097,4.629-12.921,8.616-20.484,11.975l6.303,13.866c-10.085,23.538-20.8,48.847-32.144,75.95
		c-11.345,27.102-22.799,53.998-34.352,80.677c-11.562,26.69-22.798,52.63-33.721,77.842
		c-10.931,25.212-20.799,47.695-29.623,67.441c-9.671,21.43-17.865,37.61-24.582,48.532c-6.727,10.932-11.562,17.865-14.496,20.801
		c-1.261,1.683-5.781,4.836-13.552,9.454c-7.779,4.63-17.116,7.564-28.048,8.824v6.933h134.252v-6.303
		c-5.466-0.837-11.246-1.782-17.333-2.836c-6.097-1.044-11.77-2.729-17.019-5.043c-5.259-2.304-9.562-5.25-12.921-8.824
		c-3.368-3.565-5.042-8.085-5.042-13.551c0-9.238,4.412-25.212,13.236-47.902c5.88-14.704,11.76-29.309,17.649-43.806
		c5.88-14.497,11.975-29.722,18.279-45.696h167.658c6.303,16.388,12.182,32.145,17.647,47.273
		c5.456,15.127,10.292,28.895,14.496,41.284c4.195,12.399,7.455,22.906,9.769,31.515c2.304,8.618,3.466,14.812,3.466,18.594
		c0,5.889-1.998,10.715-5.988,14.496c-3.998,3.782-8.618,6.727-13.866,8.824c-5.259,2.108-10.301,3.575-15.126,4.412
		c-4.837,0.846-7.879,1.26-9.139,1.26v6.303L1762.178,931.126L1762.178,931.126z M1395.347,595.811
		c-3.368-7.564-7.356-15.442-11.975-23.636c-4.628-8.194-9.356-15.856-14.182-23.006c-4.836-7.14-9.562-13.758-14.182-19.853
		c-4.629-6.087-8.618-10.607-11.975-13.551c-8.825-8.401-18.387-13.965-28.679-16.702c-10.301-2.729-23.429-4.304-39.392-4.728
		c-7.988,0-14.921-0.099-20.801-0.315c-5.889-0.207-11.769-0.315-17.647-0.315h-18.279h-23.32c0,10.508-0.109,24.798-0.315,42.859
		c-0.218,18.072-0.315,36.98-0.315,56.726v58.618v47.902v139.925c0,12.192,0.315,23.851,0.945,34.981
		c0.63,11.139,2.62,19.017,5.988,23.637c6.303,9.248,15.226,15.55,26.787,18.909c11.552,3.368,21.952,5.889,31.2,7.563v6.303
		h-204.845v-6.303c10.922-1.26,21.429-3.358,31.515-6.303c10.085-2.935,19.953-9.868,29.624-20.799
		c2.097-2.097,3.674-5.565,4.728-10.4c1.044-4.826,1.89-10.291,2.522-16.387c0.63-6.087,1.044-12.705,1.26-19.854
		c0.207-7.141,0.315-14.073,0.315-20.799c0-5.88,0.098-13.65,0.315-23.321c0.207-9.661,0.414-20.376,0.63-32.145
		c0.208-11.759,0.315-23.952,0.315-36.556v-35.928V493.704h-23.32h-18.279c-5.466,0-11.247,0.108-17.333,0.315
		c-6.097,0.216-13.138,0.315-21.116,0.315c-15.974,0.423-29.101,2.314-39.393,5.673c-10.301,3.368-19.854,9.248-28.679,17.647
		c-3.368,2.945-7.248,7.357-11.661,13.236c-4.412,5.889-9.041,12.291-13.866,19.224c-4.836,6.933-9.455,14.398-13.866,22.375
		c-4.413,7.987-7.878,15.757-10.4,23.321l-5.673-1.892l18.909-119.755c9.661,2.107,18.594,3.781,26.788,5.043
		c8.194,1.26,20.061,2.107,35.611,2.521c15.964,0.423,30.255,0.74,42.861,0.945c12.606,0.217,24.788,0.315,36.557,0.315h35.926
		h42.229h41.599c12.606,0,24.788-0.098,36.557-0.315c11.759-0.206,23.952-0.413,36.557-0.63c12.606-0.207,26.886-0.315,42.86-0.315
		c13.867-0.414,25.311-1.575,34.352-3.466c9.03-1.892,18.376-4.304,28.048-7.249l20.169,122.907L1395.347,595.811z M777.979,584.78
		c5.673,14.497,11.975,30.471,18.909,47.903c6.933,17.44,14.073,35.611,21.43,54.52c7.347,18.908,14.596,37.817,21.745,56.726
		H683.12c10.085-24.789,19.431-47.795,28.048-69.018c8.607-21.214,16.486-40.231,23.637-57.041
		c7.14-16.801,13.127-31.091,17.962-42.861c4.826-11.758,8.509-20.375,11.03-25.842C767.579,558.416,772.307,570.284,777.979,584.78
		 M1030.411,931.126v-7.563c-9.671-0.414-18.072-2.304-25.212-5.673c-7.15-3.359-13.138-7.249-17.964-11.661
		c-4.836-4.412-8.726-8.716-11.661-12.921c-2.945-4.195-4.836-7.14-5.673-8.824c-5.042-10.922-9.563-20.691-13.552-29.308
		c-3.998-8.608-8.302-19.431-12.92-32.46c-10.085-26.472-20.169-53.26-30.255-80.362c-10.085-27.102-20.484-55.15-31.2-84.143
		c-10.715-28.994-21.961-59.14-33.72-90.448c-11.769-31.298-24.168-64.388-37.187-99.271h-5.043
		c-1.685,2.944-4.097,6.726-7.249,11.345c-3.151,4.629-7.041,9.455-11.66,14.497c-4.628,5.043-9.986,9.878-16.072,14.497
		c-6.097,4.629-12.921,8.616-20.485,11.975l6.303,13.866c-10.085,23.538-20.799,48.847-32.145,75.95
		c-11.346,27.102-22.799,53.998-34.351,80.677c-11.562,26.69-22.799,52.63-33.721,77.842
		c-10.931,25.212-20.799,47.695-29.624,67.441c-9.671,21.43-17.864,37.61-24.581,48.532c-6.727,10.932-11.562,17.865-14.497,20.801
		c-1.262,1.683-5.782,4.836-13.551,9.454c-7.781,4.63-17.116,7.564-28.049,8.824v6.933h134.253v-6.303
		c-5.466-0.837-11.247-1.782-17.332-2.836c-6.097-1.044-11.769-2.729-17.019-5.043c-5.259-2.304-9.563-5.25-12.92-8.824
		c-3.368-3.565-5.043-8.085-5.043-13.551c0-9.238,4.413-25.212,13.236-47.902c5.88-14.704,11.758-29.309,17.649-43.806
		c5.88-14.497,11.976-29.722,18.278-45.696h167.658c6.304,16.388,12.183,32.145,17.649,47.273
		c5.455,15.127,10.292,28.895,14.497,41.284c4.195,12.399,7.455,22.906,9.769,31.515c2.306,8.618,3.467,14.812,3.467,18.594
		c0,5.889-1.998,10.715-5.988,14.496c-3.998,3.782-8.617,6.727-13.866,8.824c-5.259,2.108-10.301,3.575-15.127,4.412
		c-4.836,0.846-7.878,1.26-9.139,1.26v6.303L1030.411,931.126L1030.411,931.126z M490.257,627.956
		c-7.564-23.104-18.072-44.013-31.514-62.714c-13.453-18.693-29.417-34.558-47.903-47.588
		c-18.495-13.019-38.664-21.43-60.508-25.212c-8.411-1.674-17.647-3.043-27.732-4.096c-10.085-1.044-22.484-1.577-37.187-1.577
		c-5.043,0-10.509,0.108-16.388,0.315c-5.889,0.217-11.66,0.63-17.332,1.262c-5.673,0.63-10.932,1.161-15.757,1.575
		c-4.835,0.423-8.726,1.053-11.66,1.89c-2.108,20.592-3.368,48.957-3.782,85.09c-0.423,36.143-0.63,79.21-0.63,129.209v73.745
		c0,21.853,0.207,39.709,0.63,53.575c0,5.89,0.315,12.291,0.945,19.224c0.63,6.933,1.359,13.659,2.205,20.169
		c0.837,6.52,2.207,12.399,4.097,17.647c1.892,5.26,4.097,9.14,6.618,11.661c8.401,8.411,19.008,13.768,31.83,16.072
		c12.812,2.314,24.897,3.467,36.241,3.467c10.498,0,21.322-0.522,32.46-1.577c11.129-1.044,21.529-3.043,31.2-5.988
		c45.381-13.019,79.309-38.339,101.792-75.95c22.475-37.601,33.721-83.927,33.721-138.979
		C501.603,674.814,497.821,651.07,490.257,627.956 M567.784,781.117c-7.563,23.952-17.865,44.544-30.885,61.768
		c-13.029,17.235-28.157,31.515-45.381,42.861c-17.235,11.345-35.513,20.385-54.836,27.102
		c-19.332,6.726-39.294,11.453-59.878,14.182c-20.593,2.738-40.555,4.096-59.877,4.096H86.871v-6.303
		c10.498-1.26,20.69-3.988,30.57-8.193c9.868-4.196,17.332-9.238,22.375-15.127c2.098-2.099,3.673-5.673,4.728-10.715
		c1.044-5.043,1.989-10.716,2.836-17.019c0.837-6.303,1.469-13.019,1.892-20.169c0.414-7.14,0.63-14.073,0.63-20.799
		c0-5.88,0.099-13.866,0.315-23.952c0.207-10.085,0.414-21.115,0.63-33.09c0.207-11.975,0.315-24.267,0.315-36.872V702.33V579.423
		v-22.69c0-7.564-0.315-14.596-0.945-21.115c-0.63-6.51-1.575-12.389-2.837-17.649c-1.26-5.25-3.151-9.346-5.673-12.29
		c-6.303-7.564-13.866-12.812-22.69-15.757c-8.824-2.935-18.702-5.043-29.624-6.303v-6.304c17.647,0,43.066-0.098,76.265-0.315
		c33.188-0.207,73.321-0.315,120.386-0.315h40.339c13.866,0,27.732,0.63,41.599,1.892c13.866,1.26,27.732,3.368,41.599,6.303
		c13.866,2.945,27.516,7.356,40.969,13.236c17.647,7.564,34.243,17.235,49.794,28.994c15.54,11.769,29.092,25.743,40.654,41.914
		c11.552,16.181,20.799,34.883,27.732,56.096c6.934,21.224,10.4,45.489,10.4,72.799
		C579.128,729.433,575.346,757.165,567.784,781.117"/>
	<path class="st10" d="M1119.508,264.2c-3.982,4.441-8.573,6.658-13.776,6.658c-4.901,0-8.803-0.839-11.71-2.525
		c-2.912-1.679-5.438-3.595-7.576-5.74c-2.146-2.139-4.441-4.054-6.888-5.74c-2.454-1.679-5.819-2.526-10.102-2.526
		c-3.674,0-7.276,1.306-10.792,3.903c-3.523,2.605-6.816,5.898-9.874,9.874c-3.064,3.982-5.82,8.496-8.266,13.547
		c-2.453,5.052-4.592,9.874-6.429,14.466v132.254c0.918,2.755,2.906,4.901,5.97,6.429c3.056,1.536,6.5,2.605,10.332,3.215
		c3.824,0.617,7.806,0.998,11.94,1.148c4.132,0.157,7.727,0.537,10.791,1.148v4.592H970.266v-4.592
		c7.039-0.611,13.088-1.988,18.139-4.133c5.051-2.138,7.578-5.661,7.578-10.562V270.4c0-2.447-0.23-4.283-0.69-5.511
		c-0.459-1.22-1.764-2.597-3.902-4.133c-2.756-1.529-5.97-3.444-9.644-5.74c-3.674-2.295-7.348-4.204-11.02-5.74v-2.756
		l60.157-23.419h2.754l-0.918,63.831h0.918c1.529-3.674,3.976-9.028,7.348-16.073c3.365-7.038,7.648-14.156,12.858-21.353
		c5.202-7.19,11.481-13.389,18.828-18.598c7.347-5.202,15.764-7.806,25.257-7.806c7.65,0,14.157,2.296,19.517,6.888
		c5.353,4.592,8.036,10.411,8.036,17.45C1125.478,254.177,1123.484,259.766,1119.508,264.2 M895.185,243.076
		c-7.808-8.108-18.297-12.169-31.456-12.169c-8.575,0-16.302,2.526-23.19,7.577c-6.888,5.052-12.858,10.95-17.91,17.68
		c-5.05,6.737-8.954,13.547-11.71,20.436c-2.754,6.888-4.441,12.168-5.05,15.842h18.827c5.511,0,10.942-0.072,16.302-0.23
		c5.353-0.151,10.943-0.302,16.762-0.459c5.812-0.151,12.241-0.23,19.287-0.23c4.593,0,8.876-0.151,12.858-0.459
		c3.976-0.302,7.499-1.069,10.562-2.296c2.138-2.447,3.746-4.743,4.822-6.888c1.069-2.138,1.608-5.352,1.608-9.644
		C906.895,260.914,902.991,251.191,895.185,243.076 M947.764,397.831c-4.291,8.424-10.102,16.151-17.451,23.19
		c-7.347,7.046-16.151,12.858-26.405,17.45c-10.261,4.592-21.662,6.888-34.211,6.888c-15.614,0-29.849-2.905-42.707-8.725
		c-12.857-5.812-23.807-14.006-32.833-24.568c-9.034-10.562-16.002-22.96-20.894-37.197c-4.901-14.236-7.347-29.311-7.347-45.233
		c0-12.858,2.296-25.637,6.888-38.344c4.593-12.7,11.093-24.108,19.516-34.212c8.417-10.102,18.67-18.289,30.768-24.567
		c12.09-6.272,25.487-9.414,40.181-9.414c11.94,0,23.19,1.535,33.752,4.592c10.562,3.064,19.746,7.734,27.553,14.006
		c7.808,6.278,14.157,14.163,19.058,23.649c4.894,9.493,7.807,20.664,8.726,33.523H804.949c0,2.454-0.157,5.281-0.459,8.496
		c-0.309,3.214-0.459,6.507-0.459,9.874c0,12.857,1.838,25.185,5.511,36.966c3.674,11.789,9.027,22.201,16.073,31.227
		c7.039,9.034,15.914,16.151,26.634,21.353c10.712,5.209,23.111,7.808,37.197,7.808c15.305,0,28.7-3.904,40.181-11.71
		c11.481-7.806,19.058-17.371,22.732-28.7l3.673,0.918C954.803,381.838,952.048,389.415,947.764,397.831 M711.731,466.024
		c-3.673-6.429-8.115-10.87-13.317-13.317c-6.737-3.373-15.154-5.74-25.257-7.118c-10.103-1.378-24.037-2.066-41.788-2.066
		c-6.429,0-13.016,0.308-19.746,0.918c-6.737,0.609-12.249,1.22-16.532,1.836c-14.394,3.674-24.338,9.485-29.848,17.451
		c-5.511,7.958-8.266,16.683-8.266,26.175c0,9.794,2.675,18.369,8.036,25.716c5.352,7.347,12.012,13.547,19.976,18.598
		c7.957,5.05,16.453,8.797,25.486,11.25c9.026,2.447,17.371,3.674,25.027,3.674c9.184,0,17.062-0.459,23.65-1.378
		c6.579-0.918,12.47-2.296,17.68-4.132c10.712-4.291,20.126-11.179,28.241-20.666c8.108-9.492,12.169-20.822,12.169-33.981
		C717.242,480.102,715.405,472.454,711.731,466.024 M673.616,266.726c-2.145-7.039-5.281-13.239-9.414-18.598
		c-4.132-5.352-9.343-9.644-15.613-12.858c-6.279-3.214-13.547-4.822-21.812-4.822c-7.657,0-14.545,1.766-20.666,5.281
		c-6.127,3.523-11.25,8.266-15.383,14.236c-4.133,5.969-7.276,12.785-9.414,20.435c-2.145,7.656-3.215,15.463-3.215,23.42
		c0,18.369,4.665,33.142,14.006,44.314c9.336,11.179,20.737,16.761,34.212,16.761c8.266,0,15.535-1.836,21.812-5.511
		c6.272-3.674,11.552-8.567,15.844-14.696c4.283-6.12,7.497-13.087,9.643-20.893c2.138-7.808,3.215-15.994,3.215-24.568
		C676.832,281.271,675.754,273.772,673.616,266.726 M756.963,260.527c-3.214,3.523-7.117,5.281-11.709,5.281
		c-1.838,0-4.593-0.761-8.266-2.296c-3.674-1.529-7.736-3.365-12.169-5.511c-4.441-2.139-8.954-4.514-13.547-7.118
		c-4.592-2.597-8.726-4.972-12.399-7.118l-1.838,1.836c4.592,7.046,8.495,13.625,11.71,19.746c3.214,6.128,4.822,14.085,4.822,23.88
		c0,24.187-8.424,42.326-25.257,54.417c-16.841,12.097-40.11,18.138-69.801,18.138c-4.292,0-8.654-0.302-13.088-0.918
		c-4.441-0.611-9.722-0.918-15.842-0.918c-9.802,0.617-17.608,2.912-23.42,6.888c-5.819,3.982-8.726,9.034-8.726,15.154
		c0,4.9,1.529,8.954,4.593,12.168c3.057,3.215,6.888,5.74,11.48,7.578c4.593,1.836,9.644,3.064,15.154,3.674
		c5.511,0.617,10.864,0.918,16.073,0.918h73.473c10.713,0,20.357,1.686,28.93,5.05c8.567,3.373,15.916,7.965,22.042,13.778
		c6.121,5.819,10.792,12.477,14.006,19.975c3.215,7.499,4.822,15.844,4.822,25.027c0,11.94-2.984,23.341-8.954,34.211
		c-5.97,10.864-14.315,20.435-25.028,28.702c-10.719,8.266-23.347,14.766-37.884,19.517c-14.543,4.743-30.538,7.118-47.988,7.118
		c-33.371,0-59.317-4.98-77.837-14.924c-18.525-9.953-27.782-23.65-27.782-41.1c0-6.429,1.758-12.247,5.281-17.45
		c3.515-5.209,7.957-10.181,13.317-14.924c5.353-4.75,11.323-9.184,17.91-13.317c6.579-4.132,13.088-8.194,19.516-12.169v-0.918
		c-15.614-1.838-27.632-6.271-36.048-13.317c-8.423-7.039-12.628-16.374-12.628-28.012c0-5.812,1.378-11.322,4.132-16.532
		c2.756-5.202,6.58-9.944,11.481-14.235c4.893-4.284,10.633-7.879,17.22-10.792c6.579-2.906,13.697-4.822,21.353-5.74v-1.378
		c-13.475-5.202-23.958-12.858-31.456-22.96c-7.505-10.102-11.251-22.96-11.251-38.574c0-9.793,2.217-18.979,6.659-27.553
		c4.435-8.567,10.634-15.994,18.598-22.272c7.958-6.272,17.372-11.25,28.242-14.924c10.864-3.674,22.732-5.511,35.589-5.511
		c11.631,0,21.964,1.076,30.997,3.214c9.026,2.145,18.44,5.819,28.241,11.02c3.674,1.227,6.81,1.996,9.414,2.296
		c2.598,0.309,5.74,0.459,9.414,0.459c3.674,0,6.96-0.531,9.874-1.608c2.905-1.069,5.582-2.296,8.036-3.673
		c2.447-1.378,5.05-2.597,7.806-3.674c2.756-1.069,5.97-1.608,9.644-1.608c5.202,0,9.485,1.838,12.858,5.511
		c3.365,3.674,5.05,8.115,5.05,13.317C761.785,252.95,760.179,257.01,756.963,260.527 M407.733,444.901v-4.592
		c3.674-0.302,7.348-0.689,11.022-1.148c3.674-0.459,6.96-1.22,9.873-2.296c2.906-1.07,5.353-2.526,7.348-4.363
		c1.987-1.836,2.984-4.132,2.984-6.888V268.104c0-2.447-0.23-4.592-0.689-6.429c-0.459-1.836-1.764-3.515-3.904-5.05
		c-2.755-1.838-6.048-3.674-9.873-5.511c-3.832-1.838-7.886-3.517-12.169-5.052v-2.756l61.995-20.205h2.756v205.268
		c0.609,3.064,1.908,5.28,3.903,6.658c1.987,1.377,4.362,2.375,7.118,2.986c2.756,0.617,5.74,0.998,8.954,1.148
		c3.215,0.157,6.351,0.537,9.414,1.148v4.592H407.733z M473.63,168.225c-4.749,4.75-10.64,7.118-17.679,7.118
		c-6.738,0-12.556-2.447-17.451-7.347c-4.901-4.894-7.348-10.713-7.348-17.45c0-7.039,2.368-12.858,7.118-17.45
		c4.743-4.592,10.634-6.888,17.68-6.888c7.039,0,12.93,2.296,17.679,6.888c4.743,4.592,7.118,10.411,7.118,17.45
		C480.748,157.591,478.373,163.482,473.63,168.225 M401.305,200.599c-2.454-5.511-5.359-11.25-8.726-17.22
		c-3.373-5.97-6.816-11.552-10.332-16.762c-3.523-5.202-6.967-10.024-10.332-14.465c-3.373-4.435-6.278-7.728-8.725-9.874
		c-6.429-6.12-13.397-10.174-20.894-12.168c-7.506-1.988-17.069-3.136-28.7-3.444c-5.819,0-10.871-0.072-15.154-0.23
		c-4.291-0.151-8.575-0.23-12.858-0.23h-13.317h-16.99c0,7.656-0.08,18.067-0.23,31.227c-0.158,13.167-0.23,26.943-0.23,41.33
		v42.706v34.9v101.947c0,8.882,0.23,17.379,0.69,25.486c0.459,8.115,1.908,13.856,4.362,17.22
		c4.593,6.737,11.092,11.329,19.517,13.776c8.417,2.454,15.994,4.291,22.73,5.511v4.592H152.87v-4.592
		c7.957-0.92,15.614-2.447,22.96-4.592c7.348-2.139,14.537-7.19,21.584-15.154c1.527-1.529,2.675-4.054,3.444-7.578
		c0.761-3.516,1.377-7.499,1.836-11.94c0.459-4.434,0.761-9.256,0.918-14.465c0.151-5.202,0.23-10.253,0.23-15.154
		c0-4.283,0.072-9.946,0.23-16.992c0.151-7.038,0.301-14.845,0.459-23.419c0.151-8.567,0.23-17.45,0.23-26.634v-26.175V126.207
		h-16.99h-13.317c-3.982,0-8.194,0.079-12.628,0.23c-4.441,0.158-9.571,0.23-15.384,0.23c-11.637,0.308-21.202,1.686-28.7,4.132
		c-7.505,2.454-14.465,6.737-20.894,12.858c-2.454,2.145-5.281,5.359-8.495,9.644c-3.215,4.291-6.588,8.954-10.103,14.006
		c-3.523,5.05-6.888,10.49-10.102,16.302c-3.214,5.819-5.74,11.481-7.577,16.99l-4.132-1.377l13.776-87.251
		c7.039,1.536,13.547,2.756,19.516,3.674c5.97,0.918,14.617,1.536,25.946,1.838c11.631,0.308,22.042,0.537,31.227,0.689
		c9.184,0.158,18.061,0.23,26.634,0.23h26.176h30.766h30.308c9.184,0,18.06-0.072,26.634-0.23
		c8.567-0.151,17.451-0.302,26.634-0.459c9.184-0.15,19.588-0.229,31.227-0.229c10.102-0.302,18.44-1.148,25.028-2.526
		c6.579-1.378,13.389-3.136,20.435-5.281l14.694,89.547L401.305,200.599z"/>
	<line class="st77" x1="-1213.165" y1="1148.354" x2="2527.753" y2="1148.354"/>
</g>
</svg>
